<?xml version="1.0" encoding="utf-8"?>
<!-- Generator: Adobe Illustrator 26.0.1, SVG Export Plug-In . SVG Version: 6.00 Build 0)  -->
<svg version="1.1" id="eb1b09ad-1fe0-40ca-8096-34696e14e30a"
	 xmlns="http://www.w3.org/2000/svg" xmlns:xlink="http://www.w3.org/1999/xlink" x="0px" y="0px" viewBox="0 0 1010.9 727.3"
	 style="enable-background:new 0 0 1010.9 727.3;" xml:space="preserve">
<style type="text/css">
	.st0{fill:#0A4987;}
	.st1{fill:#FFFFFF;}
	.st2{fill:#455A64;}
	.st3{fill:#263238;}
	.st4{fill:#FFBE9D;}
	.st5{fill:#EB996E;}
	.st6{fill:#259F80;}
	.st7{opacity:0.5;}
	.st8{fill:#E8505B;}
	.st9{fill:#26332F;}
	.st10{fill:#336052;}
	.st11{opacity:0.3;}
	.st12{fill:#FAFAFA;}
	.st13{opacity:0.2;}
	.st14{opacity:0.4;}
	.st15{fill:#FFDA3E;}
	.st16{fill:#C9A200;}
	.st17{fill:#3F3D56;}
	.st18{fill:#F2F2F2;}
	.st19{fill:#FF6584;}
	.st20{fill:#E6E6E6;}
	.st21{opacity:0.2;fill:#259F80;enable-background:new    ;}
	.st22{display:none;}
	.st23{display:inline;fill:#2F2E41;}
	.st24{display:inline;fill:#FFB9B9;}
	.st25{display:inline;opacity:0.1;enable-background:new    ;}
	.st26{display:inline;fill:#EC8A46;}
</style>
<g>
	<g>
		<g>
			<g>
				<path class="st0" d="M856.8,410.3c0,0-62.6-44.3-70.5-48.7c-7.5-4.2-31.5-7.2-33.6-7.7l-42.9-9.3l-65.5,2l-18.8,11.3l-47.5,21.9
					c-13,6-23.2,16.6-28.6,29.8l-30,73.3l74.5,22l2.3,77.3l-17.6,121.9h218.1l-11-233.5l22.7,5L856.8,410.3z"/>
			</g>
			<g>
				<g>
					<path class="st1" d="M595.2,473.8c0,0-0.8,0.6-2.3,1.5c-1.5,0.8-3.8,2.1-7,2.6c-3.2,0.4-6.9-0.3-10.9-1.6
						c-4-1.2-8.1-3.2-12.4-5.4c-4.3-2.2-8.2-4.5-12-6.3c-3.7-1.8-7.2-3.2-10.2-4.1c-3-0.9-5.5-1.3-7.3-1.5c-0.9-0.1-1.6-0.1-2-0.2
						c-0.5,0-0.7-0.1-0.7-0.1s1-0.1,2.7,0.1c1.7,0.1,4.3,0.5,7.3,1.4c3,0.9,6.5,2.2,10.3,4c3.7,1.8,7.7,4,12,6.2
						c4.2,2.2,8.4,4.1,12.3,5.4c3.9,1.3,7.7,2,10.8,1.6c3.1-0.4,5.4-1.6,6.9-2.4c0.8-0.4,1.4-0.8,1.7-1
						C595,473.9,595.2,473.8,595.2,473.8z"/>
				</g>
			</g>
			<g>
				<g>
					<path class="st1" d="M592,437.7c0,0-0.2,0-0.5,0c-0.4,0-0.9,0-1.4-0.1c-1.2-0.1-3-0.2-5.2-0.4c-4.4-0.4-10.4-1.3-17-2.8
						c-6.6-1.5-12.4-3.4-16.5-4.9c-2.1-0.8-3.7-1.4-4.9-1.9c-0.5-0.2-0.9-0.4-1.3-0.6c-0.3-0.1-0.4-0.2-0.4-0.2s0.2,0,0.5,0.2
						c0.4,0.1,0.8,0.3,1.3,0.5c1.1,0.5,2.8,1.1,4.9,1.8c4.2,1.5,10,3.3,16.5,4.8c6.6,1.5,12.6,2.4,17,2.9c2.2,0.2,4,0.4,5.2,0.5
						c0.5,0,1,0.1,1.4,0.1C591.9,437.7,592,437.7,592,437.7z"/>
				</g>
			</g>
			<g>
				<g>
					<path class="st1" d="M638.9,361.6c0,0-0.6,0.9-1.7,2.4c-1.2,1.5-3.1,3.6-5.8,5.7c-2.7,2.2-6.3,4.3-10.4,6.2
						c-4.1,1.9-8.9,3.6-13.9,5.1c-5.1,1.5-9.9,2.8-14.2,4.2c-4.3,1.4-8.2,2.9-11.2,4.5c-3.1,1.5-5.4,3-7,4.2c-0.8,0.5-1.4,1-1.8,1.3
						c-0.4,0.3-0.6,0.5-0.6,0.5s0.8-0.7,2.3-1.9c1.5-1.2,3.9-2.7,7-4.3c3.1-1.6,6.9-3.1,11.2-4.6c4.3-1.4,9.2-2.8,14.2-4.3
						c5-1.5,9.8-3.2,13.9-5.1c4.1-1.9,7.7-4,10.4-6.1c2.7-2.1,4.7-4.1,5.8-5.7c0.6-0.7,1-1.4,1.3-1.8
						C638.7,361.8,638.9,361.6,638.9,361.6z"/>
				</g>
			</g>
			<g>
				<g>
					<path class="st1" d="M773,371.6c0,0-0.2-0.1-0.6-0.3c-0.4-0.2-0.9-0.5-1.6-0.9c-1.4-0.8-3.5-1.8-6.2-2.7
						c-2.7-0.9-6-1.8-9.7-2.5c-3.7-0.7-7.9-1.3-12.2-1.9c-8.6-1.2-16.4-2.3-22.2-3.1c-2.8-0.4-5-0.7-6.7-1c-0.7-0.1-1.3-0.2-1.8-0.3
						c-0.4-0.1-0.6-0.1-0.6-0.1s0.2,0,0.6,0.1c0.5,0.1,1.1,0.1,1.8,0.2c1.7,0.2,4,0.5,6.7,0.9c5.8,0.8,13.6,1.9,22.2,3.1
						c4.3,0.6,8.5,1.2,12.2,1.9c3.7,0.7,7.1,1.6,9.8,2.6c2.7,1,4.8,2,6.2,2.8C772.3,371.1,773,371.6,773,371.6z"/>
				</g>
			</g>
			<g>
				<g>
					<path class="st1" d="M742.6,386.4c0,0-0.5,0.2-1.5,0.7c-1,0.4-2.4,1-4.2,1.8c-3.7,1.5-9.1,3.5-15.9,5.5c-6.8,2-15,4-24.3,5.4
						c-9.3,1.4-19.6,1.4-30.4,1.1c-10.8-0.4-21.1-0.8-30.5-0.2c-9.3,0.5-17.7,2.2-24.4,4.5c-6.7,2.2-11.7,5.1-15,7.4
						c-1.6,1.2-2.8,2.1-3.6,2.8c-0.8,0.7-1.2,1-1.2,1s0.4-0.4,1.2-1c0.8-0.7,2-1.6,3.6-2.8c3.2-2.3,8.3-5.2,15-7.5
						c6.7-2.3,15.1-4,24.4-4.5c9.4-0.6,19.7-0.1,30.5,0.2c10.8,0.4,21.1,0.4,30.4-1c9.3-1.3,17.5-3.3,24.3-5.3
						c6.8-2,12.2-4,15.9-5.4c1.8-0.7,3.3-1.3,4.2-1.7C742.1,386.6,742.6,386.4,742.6,386.4z"/>
				</g>
			</g>
			<g>
				<g>
					<path class="st1" d="M763.2,399.5c0,0-0.1,0-0.2,0.1c-0.2,0.1-0.5,0.2-0.7,0.3c-0.6,0.2-1.5,0.5-2.6,0.8
						c-2.2,0.6-5.4,1.3-9,1.4c-3.6,0-6.8-0.6-9-1.3c-1.1-0.3-2-0.6-2.6-0.9c-0.2-0.1-0.5-0.2-0.7-0.3c-0.2-0.1-0.2-0.1-0.2-0.1
						c0,0,0.1,0,0.3,0.1c0.2,0.1,0.5,0.1,0.7,0.2c0.6,0.2,1.5,0.5,2.6,0.8c2.2,0.6,5.4,1.2,9,1.2c3.6,0,6.7-0.7,9-1.3
						c1.1-0.3,2-0.6,2.7-0.8c0.3-0.1,0.5-0.1,0.7-0.2C763.1,399.5,763.2,399.5,763.2,399.5z"/>
				</g>
			</g>
			<g>
				<g>
					<path class="st1" d="M720.9,437.4c0,0-6.4,1.4-16.9,2.9c-5.2,0.8-11.5,1.6-18.5,2.3c-7,0.7-14.7,1.2-22.8,1.5
						c-8.1,0.3-15.8,0.3-22.8,0.1c-7-0.2-13.3-0.5-18.6-0.9c-10.6-0.8-17.1-1.7-17.1-1.7s0.4,0,1.2,0.1c0.8,0.1,2,0.2,3.4,0.3
						c3,0.3,7.2,0.7,12.5,1.1c5.3,0.4,11.6,0.7,18.6,0.9c7,0.1,14.7,0.1,22.8-0.2c8.1-0.3,15.8-0.9,22.8-1.5
						c7-0.7,13.3-1.4,18.5-2.2c5.3-0.8,9.5-1.4,12.4-2c1.4-0.2,2.5-0.4,3.4-0.6C720.5,437.5,720.9,437.4,720.9,437.4z"/>
				</g>
			</g>
			<g>
				<g>
					<path class="st1" d="M773.4,433.6c0,0-0.2,0-0.5,0c-0.4,0-0.9,0-1.4,0c-1.2,0-3,0.1-5.1,0c-4.3,0-10.3-0.2-16.9-0.7
						c-6.6-0.6-12.5-1.5-16.8-2.2c-2.1-0.4-3.9-0.7-5-1c-0.5-0.1-1-0.2-1.4-0.3c-0.3-0.1-0.5-0.1-0.5-0.1s0.2,0,0.5,0.1
						c0.4,0.1,0.8,0.2,1.4,0.2c1.3,0.2,3,0.5,5.1,0.9c4.3,0.7,10.2,1.6,16.8,2.1c6.6,0.6,12.6,0.8,16.9,0.8c2.1,0,3.8,0,5.1,0
						c0.5,0,1,0,1.4,0C773.2,433.6,773.4,433.6,773.4,433.6z"/>
				</g>
			</g>
			<g>
				<g>
					<path class="st1" d="M706.4,488.9c0,0-0.4,0.1-1.1,0.2c-0.8,0.1-1.8,0.3-3.2,0.4c-1.4,0.2-3.1,0.4-5,0.6
						c-2,0.1-4.2,0.4-6.7,0.5c-2.5,0.1-5.2,0.2-8.1,0.2c-1.5,0-3,0-4.5,0c-1.6-0.1-3.1-0.1-4.8-0.2c-6.5-0.3-13.7-0.8-21.3-1.4
						c-7.5-0.6-14.7-1.3-21.2-1.7c-6.5-0.4-12.4-0.7-17.4-0.6c-1.2,0-2.4,0-3.5,0c-1.1,0.1-2.2,0.1-3.1,0.2c-2,0.1-3.7,0.2-5,0.3
						c-1.3,0.1-2.4,0.2-3.2,0.3c-0.7,0.1-1.1,0.1-1.1,0.1s0.4-0.1,1.1-0.1c0.8-0.1,1.8-0.2,3.2-0.4c1.4-0.2,3.1-0.3,5-0.4
						c1-0.1,2-0.1,3.1-0.2c1.1,0,2.3,0,3.5,0c5-0.1,10.9,0.2,17.4,0.5c6.5,0.4,13.7,1.1,21.2,1.7c7.5,0.7,14.7,1.2,21.3,1.4
						c1.6,0.1,3.2,0.1,4.8,0.2c1.5,0,3.1,0,4.5,0c2.9,0.1,5.6-0.1,8.1-0.1c2.5,0,4.7-0.3,6.7-0.4c2-0.1,3.6-0.3,5-0.5
						c1.3-0.2,2.4-0.3,3.2-0.4C706.1,488.9,706.4,488.9,706.4,488.9z"/>
				</g>
			</g>
			<g>
				<g>
					<path class="st1" d="M785.3,473.2c0,0-0.2,0-0.6,0.1c-0.5,0.1-1,0.1-1.7,0.2c-1.5,0.2-3.6,0.3-6.3,0.5
						c-5.3,0.4-12.7,0.6-20.8,0.4c-8.1-0.2-15.5-0.9-20.8-1.5c-2.6-0.3-4.8-0.6-6.3-0.8c-0.7-0.1-1.2-0.2-1.7-0.3
						c-0.4-0.1-0.6-0.1-0.6-0.1s0.2,0,0.6,0.1c0.5,0.1,1,0.1,1.7,0.2c1.5,0.2,3.6,0.5,6.3,0.8c5.3,0.6,12.6,1.2,20.8,1.4
						c8.1,0.2,15.5,0,20.8-0.3c2.7-0.2,4.8-0.3,6.3-0.4c0.7-0.1,1.2-0.1,1.7-0.1C785.1,473.2,785.3,473.2,785.3,473.2z"/>
				</g>
			</g>
			<g>
				<g>
					<path class="st1" d="M786.3,521.9c0,0-0.7,0-2-0.1c-1.3-0.1-3.2-0.3-5.6-0.3c-4.9-0.2-11.9-0.3-20.7,0.1
						c-8.7,0.4-19.1,1.5-30.5,3c-11.4,1.5-24,3.5-37.2,5.2c-13.2,1.7-25.9,2.8-37.5,2.9c-11.6,0.1-22-0.7-30.6-2.2
						c-8.6-1.5-15.4-3.4-20-5.1c-1.2-0.4-2.2-0.8-3-1.1c-0.9-0.3-1.6-0.6-2.2-0.9c-1.2-0.5-1.8-0.7-1.8-0.7s0.6,0.2,1.8,0.7
						c0.6,0.2,1.4,0.5,2.2,0.8c0.9,0.3,1.9,0.7,3.1,1.1c4.6,1.6,11.4,3.5,20,5c8.6,1.5,19,2.3,30.5,2.2c11.5-0.1,24.2-1.2,37.4-2.9
						c13.2-1.7,25.8-3.7,37.2-5.1c11.4-1.5,21.8-2.5,30.5-2.9c8.7-0.4,15.8-0.3,20.7,0C783.6,521.6,786.3,521.9,786.3,521.9z"/>
				</g>
			</g>
			<g>
				<g>
					<path class="st1" d="M712.6,571.9c0,0-6.4,1.1-16.9,2.2c-5.3,0.6-11.5,1.1-18.5,1.5c-7,0.4-14.7,0.6-22.7,0.5
						c-8.1-0.1-15.7-0.4-22.7-0.9c-7-0.5-13.2-1.1-18.5-1.7c-10.5-1.3-16.9-2.5-16.9-2.5s0.4,0,1.2,0.2c0.8,0.1,2,0.3,3.4,0.5
						c1.5,0.2,3.2,0.5,5.3,0.7c2.1,0.3,4.4,0.6,7.1,0.9c5.2,0.6,11.5,1.2,18.5,1.7c7,0.4,14.6,0.8,22.7,0.8c8.1,0,15.7-0.2,22.7-0.5
						c7-0.4,13.2-0.9,18.5-1.4c2.6-0.2,5-0.5,7.1-0.8c2.1-0.2,3.9-0.5,5.3-0.7c1.4-0.2,2.5-0.3,3.4-0.4
						C712.2,571.9,712.6,571.9,712.6,571.9z"/>
				</g>
			</g>
			<g>
				<g>
					<path class="st1" d="M785.5,562.3c0,0-0.2,0.1-0.7,0.2c-0.5,0.2-1.2,0.4-2.1,0.6c-1.8,0.5-4.4,1.3-7.6,2.1
						c-6.5,1.7-15.4,3.9-25.5,5.7c-10,1.8-19.2,3-25.8,3.7c-3.3,0.3-6,0.6-7.9,0.7c-0.9,0.1-1.6,0.1-2.1,0.1c-0.5,0-0.7,0-0.7,0
						s0.3,0,0.7-0.1c0.6-0.1,1.3-0.1,2.1-0.2c1.9-0.2,4.6-0.4,7.9-0.8c6.6-0.7,15.8-1.9,25.8-3.8c10-1.8,19-4,25.5-5.6
						c3.2-0.8,5.8-1.5,7.6-2.1c0.8-0.2,1.5-0.4,2.1-0.6C785.2,562.4,785.5,562.3,785.5,562.3z"/>
				</g>
			</g>
			<g>
				<g>
					<path class="st1" d="M661.5,627.8c0,0-4,0.7-10.4,1c-3.2,0.2-7.1,0.2-11.4,0c-4.3-0.2-9-0.7-13.9-1.5
						c-4.9-0.8-9.5-1.9-13.6-3.1c-4.1-1.2-7.8-2.5-10.8-3.7c-6-2.4-9.5-4.4-9.5-4.4s0.2,0.1,0.7,0.3c0.5,0.2,1.1,0.5,1.9,0.9
						c0.8,0.4,1.8,0.9,3,1.3c1.2,0.5,2.5,1.1,4,1.7c3,1.2,6.7,2.4,10.8,3.7c4.1,1.2,8.7,2.2,13.6,3.1c4.9,0.8,9.6,1.3,13.8,1.5
						c4.3,0.2,8.1,0.2,11.4,0c1.6,0,3.1-0.2,4.4-0.3c1.3-0.1,2.4-0.2,3.3-0.3c0.8-0.1,1.5-0.2,2.1-0.2
						C661.2,627.8,661.5,627.8,661.5,627.8z"/>
				</g>
			</g>
			<g>
				<g>
					<path class="st1" d="M790.4,624.4c0,0-0.5,0.1-1.3,0.2c-0.9,0.1-2.2,0.4-3.8,0.6c-3.3,0.5-8.1,1.3-14.1,2.1
						c-11.9,1.7-28.4,3.8-46.7,5.6c-18.3,1.8-34.9,3-47,3.7c-6,0.3-10.9,0.6-14.3,0.7c-1.6,0.1-2.9,0.1-3.9,0.1c-0.9,0-1.4,0-1.4,0
						s0.5,0,1.4-0.1c0.9,0,2.2-0.1,3.9-0.2c3.4-0.2,8.3-0.5,14.2-0.8c12-0.7,28.6-1.9,46.9-3.7c18.3-1.8,34.8-3.9,46.7-5.6
						c5.9-0.8,10.7-1.5,14.1-2c1.6-0.2,2.9-0.4,3.8-0.6C789.9,624.4,790.4,624.4,790.4,624.4z"/>
				</g>
			</g>
			<g>
				<g>
					<path class="st1" d="M797.4,673.7c0,0-2.9,0.6-8.3,1.5c-5.3,0.9-13.1,2-22.7,2.8c-9.6,0.8-21.2,1.2-34,0.8
						c-12.8-0.4-26.8-1.8-41.5-3.6c-14.7-1.8-28.6-3.6-41.4-4.6c-12.7-1-24.3-1.2-33.9-0.8c-9.7,0.5-17.4,1.6-22.7,2.6
						c-2.7,0.5-4.7,0.9-6.1,1.3c-1.4,0.3-2.1,0.5-2.1,0.5s0.7-0.2,2.1-0.5c1.4-0.4,3.4-0.8,6.1-1.3c5.3-1,13.1-2.2,22.7-2.7
						c9.7-0.5,21.2-0.3,34,0.7c12.8,1,26.7,2.8,41.4,4.6c14.6,1.8,28.6,3.2,41.4,3.7c12.8,0.4,24.3,0,33.9-0.8
						c9.6-0.8,17.4-1.8,22.7-2.7c2.7-0.4,4.7-0.8,6.1-1C796.7,673.8,797.4,673.7,797.4,673.7z"/>
				</g>
			</g>
			<g>
				<g>
					<path class="st1" d="M836.7,398.3c0,0-0.4,1.1-1.3,2.9c-0.9,1.9-2.3,4.5-4.4,7.5c-2.1,3-4.8,6.4-8.1,10
						c-3.2,3.6-7,7.4-10.8,11.5c-3.8,4.1-7.1,8.2-9.8,12.3c-2.6,4-4.6,7.9-5.8,11.4c-1.2,3.5-1.7,6.4-1.9,8.4
						c-0.1,1-0.1,1.8-0.1,2.3c0,0.5,0,0.8,0,0.8s-0.1-1.1,0.1-3.2c0.1-2,0.6-5,1.8-8.5c1.1-3.5,3.1-7.4,5.7-11.5
						c2.6-4.1,6-8.2,9.8-12.3c3.8-4.1,7.5-7.9,10.8-11.5c3.2-3.6,6-6.9,8.1-9.9c2.1-3,3.6-5.6,4.4-7.4c0.5-0.9,0.8-1.6,1-2.1
						C836.6,398.6,836.7,398.3,836.7,398.3z"/>
				</g>
			</g>
			<g>
				<g>
					<path class="st1" d="M775,421.4c0,0,0.2-0.1,0.5-0.3c0.4-0.3,0.8-0.6,1.3-0.9c1.2-0.8,2.8-2,4.8-3.5c2-1.5,4.3-3.4,6.7-5.7
						c2.4-2.3,5-4.9,7.4-7.8c2.5-2.9,4.6-5.8,6.5-8.6c1.8-2.8,3.4-5.3,4.5-7.5c1.2-2.2,2.1-4,2.7-5.3c0.3-0.6,0.5-1.1,0.7-1.5
						c0.2-0.3,0.3-0.5,0.3-0.5s-1.1,2.9-3.4,7.3c-1.2,2.2-2.7,4.8-4.5,7.6c-1.9,2.8-4,5.7-6.5,8.6c-2.5,2.9-5.1,5.5-7.5,7.8
						c-2.4,2.2-4.7,4.1-6.8,5.6C777.7,419.9,775,421.4,775,421.4z"/>
				</g>
			</g>
			<g>
				<g>
					<g>
						<g>
							<g>
								<path class="st2" d="M679.2,484.1c0,0,0.1-0.1,0.3-0.1c0.3-0.1,0.6-0.2,1-0.4c0.9-0.3,2.1-0.8,3.7-1.6
									c3.1-1.5,7.4-4.2,11.9-8.4c4.5-4.2,9.1-10,13.6-16.8c4.5-6.8,9-14.6,13.2-23.1c8.5-16.9,14.6-32.9,18.8-44.5
									c2.1-5.8,3.8-10.6,4.9-13.8c0.6-1.6,1-2.9,1.3-3.8c0.1-0.4,0.3-0.7,0.4-1c0.1-0.2,0.1-0.3,0.1-0.3c0,0,0,0.1-0.1,0.3
									c-0.1,0.3-0.2,0.6-0.3,1c-0.3,0.9-0.7,2.2-1.2,3.8c-1.1,3.3-2.6,8.1-4.7,13.9C738,401,732,417.1,723.4,434
									c-4.3,8.4-8.8,16.3-13.3,23.1c-4.5,6.8-9.2,12.6-13.8,16.9c-4.5,4.3-8.9,6.9-12.1,8.3c-1.6,0.7-2.8,1.2-3.7,1.5
									c-0.4,0.1-0.7,0.2-1,0.3C679.3,484.1,679.2,484.1,679.2,484.1z"/>
							</g>
						</g>
						<g>
							<g>
								<path class="st2" d="M677,512.5c0,0,0.2-0.2,0.7-0.6c0.5-0.4,1.3-0.9,2.2-1.5c1.9-1.3,4.6-3.2,7.8-5.7
									c6.5-4.9,15-12.3,24.2-20.8c4.6-4.2,9-8.2,12.8-12c3.8-3.8,7-7.5,9.5-10.7c2.5-3.3,4.1-6.1,5.2-8.1c0.6-1,0.9-1.8,1.2-2.3
									c0.3-0.5,0.4-0.8,0.4-0.8c0,0-0.1,0.3-0.3,0.9c-0.2,0.6-0.6,1.4-1.1,2.4c-1,2.1-2.6,5-5,8.3c-2.4,3.3-5.6,7-9.4,10.9
									c-3.8,3.9-8.2,7.9-12.8,12.1c-9.2,8.4-17.8,15.8-24.4,20.6c-3.3,2.4-6,4.3-7.9,5.5c-1,0.6-1.7,1.1-2.2,1.4
									C677.3,512.3,677,512.5,677,512.5z"/>
							</g>
						</g>
						<g>
							<g>
								<path class="st2" d="M640.8,655.7c0,0,0-0.1,0.2-0.3c0.1-0.2,0.3-0.5,0.5-0.9c0.5-0.7,1.2-1.8,2.2-3.2
									c1.9-2.7,4.9-6.5,8.9-11c7.9-8.9,19.1-21.1,31.3-34.5c12.3-13.4,23.4-25.6,31.5-34.4c4-4.3,7.3-7.9,9.6-10.4
									c1.1-1.2,2-2.1,2.6-2.8c0.3-0.3,0.5-0.5,0.7-0.7c0.2-0.2,0.2-0.2,0.3-0.2c0,0-0.1,0.1-0.2,0.3c-0.2,0.2-0.4,0.5-0.6,0.8
									c-0.6,0.7-1.5,1.7-2.5,2.9c-2.3,2.5-5.5,6.1-9.4,10.5c-8.1,8.9-19.1,21.1-31.4,34.5c-12.3,13.4-23.4,25.6-31.5,34.4
									c-4,4.4-7,8.2-9,10.9c-1,1.3-1.8,2.4-2.3,3.1c-0.2,0.3-0.4,0.6-0.6,0.8C640.9,655.7,640.8,655.8,640.8,655.7z"/>
							</g>
						</g>
					</g>
					<g>
						<g>
							<path class="st2" d="M765.9,414.9c0,0-0.2-0.7-0.5-2c-0.2-0.7-0.3-1.5-0.4-2.4c-0.1-1-0.3-2-0.4-3.2c-0.1-1.2-0.2-2.5-0.2-4
								c-0.1-1.4,0-2.9,0.1-4.5c0.2-3.2,0.7-6.7,1.6-10.3c0.9-3.6,2.1-6.9,3.4-9.8c0.7-1.4,1.3-2.8,2-4.1c0.7-1.3,1.4-2.4,2-3.4
								c0.6-1,1.3-1.9,1.9-2.7c0.5-0.8,1.1-1.4,1.5-1.9c0.9-1,1.4-1.6,1.4-1.6c0,0-0.4,0.6-1.2,1.7c-0.4,0.5-0.9,1.2-1.4,2
								c-0.5,0.8-1.2,1.7-1.8,2.7c-0.6,1-1.3,2.2-1.9,3.4c-0.7,1.2-1.3,2.6-2,4.1c-1.2,2.9-2.4,6.2-3.3,9.8c-0.9,3.6-1.4,7-1.6,10.2
								c-0.1,1.6-0.2,3.1-0.2,4.5c0,1.4,0,2.7,0.1,3.9c0,1.2,0.2,2.3,0.3,3.2c0.1,1,0.2,1.8,0.3,2.4
								C765.9,414.1,766,414.9,765.9,414.9z"/>
						</g>
					</g>
					<g>
						<g>
							<path class="st2" d="M785.4,463c-0.2,0.1-2.6-5.3-5.4-11.9c-2.8-6.6-4.9-12.1-4.8-12.2c0.2-0.1,2.6,5.3,5.4,11.9
								C783.5,457.4,785.6,462.9,785.4,463z"/>
						</g>
					</g>
					<g>
						<g>
							<path class="st2" d="M593.8,420.5c-0.1,0.1-1.1-1.9-3.1-4.8c-2-2.9-5-6.7-8.8-10.5c-3.8-3.7-7.8-6.6-10.7-8.5
								c-3-1.9-4.9-2.9-4.9-3c0,0,0.5,0.2,1.4,0.6c0.9,0.4,2.2,1.1,3.7,2c3,1.8,7.1,4.6,11,8.4c3.9,3.8,6.8,7.7,8.7,10.7
								c0.9,1.5,1.7,2.7,2.1,3.6C593.6,419.9,593.9,420.4,593.8,420.5z"/>
						</g>
					</g>
				</g>
			</g>
		</g>
		<g>
			<g>
				<g>
					<path class="st2" d="M646.5,388.8c0,0-0.1-0.5,0-1.4c0.1-0.9,0.3-2,0.8-3.2c0.7-1.6,1.7-2.9,2.3-3.4l0.1-0.1l0,0.1
						c0.2,0.4,0.2,0.6,0.2,0.6c0,0-0.1-0.2-0.3-0.5l0.1,0c-0.5,0.6-1.4,1.8-2.1,3.4C646.5,386.6,646.6,388.8,646.5,388.8z"/>
				</g>
			</g>
			<g>
				<g>
					<path class="st2" d="M664.2,398c0,0-0.2-0.5-0.3-1.3c-0.1-0.8-0.1-2,0.1-3.3c0.2-1.3,0.6-2.4,0.9-3.2c0.3-0.8,0.6-1.2,0.7-1.2
						c0.1,0-0.9,1.9-1.3,4.4C663.9,395.9,664.3,398,664.2,398z"/>
				</g>
			</g>
			<g>
				<g>
					<path class="st2" d="M683.6,396.4c-0.1,0,0-1.7-0.5-3.7c-0.5-2-1.5-3.4-1.5-3.5c0,0,0.3,0.3,0.7,0.9c0.4,0.6,0.8,1.5,1.1,2.5
						c0.3,1,0.4,2,0.4,2.7C683.7,396,683.6,396.4,683.6,396.4z"/>
				</g>
			</g>
			<g>
				<g>
					<path class="st2" d="M700.5,389c-0.1,0-0.7-1.7-2-3.4c-1.3-1.7-2.9-2.7-2.8-2.8c0,0,0.4,0.2,1,0.6c0.6,0.4,1.3,1.1,2,2
						c0.7,0.9,1.2,1.8,1.4,2.5C700.4,388.6,700.5,389,700.5,389z"/>
				</g>
			</g>
			<g>
				<g>
					<path class="st2" d="M712.1,377.5c-0.1,0.1-0.4-2.1-2.3-3.7c-1.9-1.6-4-1.7-4-1.8c0,0,0.1,0,0.4,0c0.2,0,0.6,0,1,0.1
						c0.8,0.2,1.9,0.6,2.8,1.4c1,0.8,1.6,1.8,1.8,2.6c0.1,0.4,0.2,0.7,0.3,0.9C712.1,377.4,712.2,377.5,712.1,377.5z"/>
				</g>
			</g>
			<g>
				<g>
					<path class="st2" d="M718.4,356.3c0,0.1-1.3-1.3-3.5-1.7c-2.2-0.4-3.9,0.4-3.9,0.3c-0.1,0,1.7-1,3.9-0.6
						C717.2,354.8,718.4,356.3,718.4,356.3z"/>
				</g>
			</g>
			<g>
				<g>
					<path class="st2" d="M634.9,374.5c0,0,0-0.5,0.3-1.1c0.3-0.7,0.7-1.6,1.5-2.4c0.8-0.8,1.6-1.4,2.3-1.7c0.7-0.3,1.1-0.4,1.1-0.4
						c0,0.1-1.7,0.6-3.2,2.3C635.4,372.7,634.9,374.5,634.9,374.5z"/>
				</g>
			</g>
			<g>
				<g>
					<path class="st2" d="M630.6,360.3c0,0,0.2-0.5,0.7-1.1c0.5-0.6,1.2-1.4,2.2-2.1c1-0.7,2-1.1,2.8-1.3c0.8-0.2,1.2-0.2,1.3-0.2
						c0,0.1-1.9,0.4-3.9,1.7C631.7,358.7,630.7,360.4,630.6,360.3z"/>
				</g>
			</g>
		</g>
		<g>
			<g>
				<path class="st3" d="M597.3,442.7C597.3,442.7,597.3,442.6,597.3,442.7c-0.1,0.1-0.2,0.3-0.2,0.5c-0.1,0.4-0.1,1-0.2,1.8
					c-0.2,1.6-0.3,3.9-0.5,6.7c-0.4,5.6-0.8,13.4-1.2,22.1c-0.4,8.6-0.7,16.4-0.9,22.1c-0.1,2.7-0.2,5-0.2,6.7
					c0,0.7-0.1,1.3-0.1,1.8c0,0.4,0,0.6-0.1,0.6c0,0,0-0.2-0.1-0.6c0-0.5,0-1.1-0.1-1.8c0-1.6,0-3.9,0-6.7
					c0.1-5.7,0.3-13.5,0.7-22.1c0.4-8.6,0.9-16.4,1.5-22.1c0.3-2.8,0.5-5.1,0.7-6.7c0.1-0.8,0.2-1.4,0.4-1.8
					c0.1-0.2,0.1-0.4,0.2-0.5C597.3,442.6,597.3,442.7,597.3,442.7z"/>
			</g>
		</g>
	</g>
	<g>
		<g>
			<g>
				<g>
					<path class="st3" d="M745,172c-11.2-3.4-22.8,6.6-34.3,4.3c-7-1.4-12.2-6.9-18.4-10.4c-9.3-5.2-22.4-6-31.8-1.2
						c-9.5,4.8-15.6,9.9-16.9,20.5c-8.6-4.9-23,5.9-27.9,16.4c-4.9,10.5-3.7,21.3-0.9,32.5c4.8,19.3,13.4,37.7,25.2,53.7
						c1,1.4,2.7,3,4.3,2.2c1.1-0.5,1.5-1.9,1.7-3.1c1.6-10.3,0.3-20.7-0.5-31.1c-0.9-10.3-1.3-21,1.9-30.9
						c3.3-9.9,11-18.9,21.2-20.9c7.5-1.5,15.3,1,22,4.7c6.7,3.8,12.6,8.8,18.9,13.1c6.4,4.3,13.5,7.9,21.2,8.2
						c7.7,0.3,15.9-3.3,19.2-10.2c3.3-6.9-0.4-16.8-7.9-18.4c6.9-0.6,12.9-6.6,13.6-13.5C756.3,181.1,751.6,174,745,172z"/>
				</g>
			</g>
			<g>
				<g>
					<g>
						<g>
							<g>
								<g>
									<g>
										<g>
											<g>
												<g>
													<g>
														<g>
															<g>
																<g>
																	<g>
																		<g>
																			<path class="st4" d="M710.5,351.8l-1.1-22.2c0,0,29.2-5.6,28.6-35c-0.3-14.2-3.4-43.4-6.4-69.8
																				c-3.3-28.4-27.8-49.5-56.4-48.5l-2.8,0.1c-30.5,2.9-45.2,30.4-41.5,60.8l7,118.5c1.2,19.9,18.2,35.2,38.2,34.1h0
																				C696.1,388.8,711.5,371.8,710.5,351.8z"/>
																		</g>
																	</g>
																</g>
															</g>
														</g>
													</g>
												</g>
											</g>
										</g>
									</g>
									<g>
										<g>
											<g>
												<g>
													<g>
														<g>
															<g>
																<g>
																	<g>
																		<g>
																			<path class="st5" d="M709.4,329.6c0,0-18.5,2.2-38.7-9.5c0,0,9.8,20.8,39.1,17.2L709.4,329.6z"/>
																		</g>
																	</g>
																</g>
															</g>
														</g>
													</g>
												</g>
											</g>
										</g>
									</g>
								</g>
							</g>
						</g>
						<g>
							<g>
								<g>
									<g>
										<g>
											<g>
												<g>
													<g>
														<g>
															<g>
																<g>
																	<g>
																		<g>
																			<g>
																				<g>
																					<g>
																						<path class="st3" d="M721.7,244.7c0.2,2.2-1.6,4.2-3.9,4.4c-2.3,0.2-4.3-1.4-4.5-3.6
																							c-0.2-2.2,1.6-4.2,3.9-4.4C719.5,240.9,721.5,242.5,721.7,244.7z"/>
																					</g>
																				</g>
																			</g>
																		</g>
																	</g>
																</g>
															</g>
														</g>
													</g>
												</g>
												<g>
													<g>
														<g>
															<g>
																<g>
																	<g>
																		<g>
																			<g>
																				<g>
																					<g>
																						<g>
																							<path class="st3" d="M725.7,239.4c-0.5,0.6-3.8-1.7-8.3-1.5c-4.5,0.1-7.7,2.5-8.3,2
																								c-0.2-0.2,0.2-1.2,1.7-2.3c1.4-1.1,3.8-2.2,6.6-2.3c2.8-0.1,5.2,0.9,6.6,1.9
																								C725.5,238.2,726,239.1,725.7,239.4z"/>
																						</g>
																					</g>
																				</g>
																			</g>
																		</g>
																	</g>
																</g>
															</g>
														</g>
													</g>
												</g>
											</g>
											<g>
												<g>
													<g>
														<g>
															<g>
																<g>
																	<g>
																		<g>
																			<g>
																				<g>
																					<g>
																						<path class="st3" d="M677.3,247.8c0.2,2.2-1.6,4.2-3.9,4.4c-2.3,0.2-4.3-1.4-4.5-3.6
																							c-0.2-2.2,1.6-4.2,3.9-4.4C675.1,244,677.1,245.6,677.3,247.8z"/>
																					</g>
																				</g>
																			</g>
																		</g>
																	</g>
																</g>
															</g>
														</g>
													</g>
												</g>
												<g>
													<g>
														<g>
															<g>
																<g>
																	<g>
																		<g>
																			<g>
																				<g>
																					<g>
																						<g>
																							<path class="st3" d="M681.4,241.8c-0.5,0.6-3.8-1.7-8.3-1.5c-4.5,0.1-7.7,2.5-8.3,2
																								c-0.2-0.2,0.2-1.2,1.7-2.3c1.4-1.1,3.8-2.2,6.6-2.3c2.8-0.1,5.2,0.9,6.6,1.9
																								C681.1,240.6,681.6,241.5,681.4,241.8z"/>
																						</g>
																					</g>
																				</g>
																			</g>
																		</g>
																	</g>
																</g>
															</g>
														</g>
													</g>
												</g>
											</g>
											<g>
												<g>
													<g>
														<g>
															<g>
																<g>
																	<g>
																		<g>
																			<g>
																				<g>
																					<g>
																						<path class="st3" d="M698.9,274.7c0-0.3,2.8-0.8,7.3-1.6c1.1-0.2,2.2-0.4,2.4-1.2c0.2-0.8-0.3-2.1-0.9-3.4
																							c-1.2-2.8-2.4-5.6-3.7-8.7c-5.2-12.3-9-22.5-8.5-22.7c0.5-0.2,5.1,9.6,10.3,22c1.2,3,2.4,5.9,3.6,8.7
																							c0.5,1.3,1.3,2.8,0.8,4.5c-0.3,0.9-1.1,1.5-1.8,1.8c-0.7,0.3-1.4,0.3-2,0.3C701.8,274.9,699,275,698.9,274.7z
																							"/>
																					</g>
																				</g>
																			</g>
																		</g>
																	</g>
																</g>
															</g>
														</g>
													</g>
												</g>
											</g>
											<g>
												<g>
													<g>
														<g>
															<g>
																<g>
																	<g>
																		<g>
																			<g>
																				<g>
																					<g>
																						<path class="st3" d="M685.7,278.3c0.7-0.1,0.9,4.8,5.2,8.2c4.3,3.3,9.5,2.6,9.6,3.3c0.1,0.3-1.1,1-3.3,1.1
																							c-2.2,0.2-5.3-0.4-8-2.5c-2.6-2-3.8-4.9-4.1-6.9C684.9,279.5,685.4,278.3,685.7,278.3z"/>
																					</g>
																				</g>
																			</g>
																		</g>
																	</g>
																</g>
															</g>
														</g>
													</g>
												</g>
											</g>
										</g>
									</g>
								</g>
								<g>
									<g>
										<g>
											<g>
												<g>
													<g>
														<g>
															<g>
																<g>
																	<g>
																		<path class="st3" d="M681,218.6c-0.4,1.2-4.9,0.8-10.2,1.6c-5.3,0.7-9.5,2.4-10.3,1.3c-0.3-0.5,0.4-1.7,2.1-2.9
																			c1.7-1.2,4.4-2.5,7.5-2.9c3.2-0.5,6.1-0.1,8.1,0.7C680.2,217.1,681.2,218,681,218.6z"/>
																	</g>
																</g>
															</g>
														</g>
													</g>
												</g>
											</g>
										</g>
									</g>
								</g>
								<g>
									<g>
										<g>
											<g>
												<g>
													<g>
														<g>
															<g>
																<g>
																	<g>
																		<path class="st3" d="M723.6,226.4c-0.8,1.1-3.9,0.1-7.7,0.2c-3.7,0-6.9,0.9-7.7-0.1c-0.3-0.5,0.1-1.6,1.5-2.6
																			c1.3-1,3.6-1.9,6.2-1.9c2.6,0,4.8,0.8,6.2,1.8C723.5,224.8,724,225.9,723.6,226.4z"/>
																	</g>
																</g>
															</g>
														</g>
													</g>
												</g>
											</g>
										</g>
									</g>
								</g>
							</g>
						</g>
					</g>
				</g>
			</g>
			<g>
				<g>
					<g>
						<g>
							<g>
								<g>
									<g>
										<g>
											<g>
												<g>
													<g>
														<path class="st4" d="M634.1,258.9c-0.5-0.2-20.4-5.3-19.1,14.8c1.3,20.1,21.2,14.6,21.2,14
															C636.2,287.2,634.1,258.9,634.1,258.9z"/>
													</g>
												</g>
											</g>
										</g>
									</g>
								</g>
							</g>
						</g>
					</g>
				</g>
				<g>
					<g>
						<g>
							<g>
								<g>
									<g>
										<g>
											<g>
												<g>
													<g>
														<g>
															<path class="st5" d="M629.6,280.5c-0.1-0.1-0.3,0.3-0.9,0.6c-0.6,0.3-1.5,0.6-2.6,0.2c-2.2-0.6-4.2-3.9-4.5-7.5
																c-0.2-1.8,0.1-3.6,0.6-5.1c0.5-1.5,1.4-2.6,2.5-2.9c1-0.3,1.8,0.3,2.1,0.8c0.3,0.5,0.2,1,0.3,1
																c0.1,0,0.4-0.4,0.2-1.2c-0.1-0.4-0.4-0.9-0.9-1.2c-0.5-0.4-1.2-0.5-2-0.4c-1.5,0.2-2.8,1.7-3.4,3.4
																c-0.7,1.6-1,3.6-0.8,5.7c0.4,4,2.7,7.7,5.7,8.3c1.4,0.3,2.6-0.2,3.2-0.7C629.6,281,629.6,280.6,629.6,280.5z"/>
														</g>
													</g>
												</g>
											</g>
										</g>
									</g>
								</g>
							</g>
						</g>
					</g>
				</g>
			</g>
			<g>
				<g>
					<g>
						<path class="st3" d="M737.6,218.4c-12.8,3.9-27.5,1.1-38-7.2c-7.4-5.8-13.2-14.3-22.2-16.8c-6.1-1.6-12.8-0.1-18.2,3.1
							c-5.4,3.2-9.7,8.1-13.4,13.2c6.2,14.7,3,31.6-0.4,47.2c-0.4,1.7-0.8,3.6-2.2,4.7c-2.3,1.9-5.9,0.6-8.1-1.5
							c-3.4-3.4-4.9-8.2-5.9-12.9c-2.3-10.7-3-21.9-0.9-32.6c2-10.8,6.8-21.1,14.5-29c9.6-9.8,23.2-15.2,36.9-15.5
							c13.7-0.3,27.3,4.4,38.5,12.3c5.2,3.6,10,8.1,12.8,13.8"/>
					</g>
				</g>
			</g>
		</g>
		<g>
			<g>
				<g>
					<path class="st2" d="M753.7,178.8c0,0,0.1,0.6-0.1,1.7c-0.3,1.1-1,2.8-2.7,4.2c-1.7,1.5-4.3,2.5-7.4,2.8
						c-1.6,0.1-3.2,0.1-5-0.1c-1.8-0.3-3.6-0.9-5.2-2.2c-1.5-1.3-2.8-3.3-2.7-5.6c0.1-2.3,1.9-4.4,4.1-5.3c1.1-0.5,2.3-0.7,3.6-0.6
						c1.3,0.1,2.5,0.6,3.5,1.4c2.1,1.6,3.1,4.3,3.2,6.9c0.1,2.7-1,5.4-2.9,7.5c-1.9,2.1-4.4,3.5-7.1,4.4c-5.5,1.7-11.7,0.9-17.2-1.3
						c-5.6-2.1-10.5-5.3-15.2-8.4c-4.6-3.1-9.1-6.1-13.8-8.1c-4.6-2.1-9.4-3.1-13.9-2.9c-4.5,0.3-8.6,1.7-11.9,3.5
						c-6.8,3.7-10.6,9-12.9,12.6c-1.1,1.8-1.9,3.3-2.4,4.4c-0.5,1-0.8,1.6-0.8,1.6c0,0,0-0.2,0.1-0.4c0.1-0.3,0.2-0.7,0.5-1.2
						c0.4-1.1,1.2-2.6,2.3-4.5c2.2-3.7,6-9.1,12.9-13c3.4-1.9,7.6-3.4,12.2-3.7c4.6-0.3,9.6,0.7,14.4,2.9c4.8,2.1,9.3,5.1,14,8.2
						c4.6,3.1,9.5,6.2,15,8.3c5.4,2.1,11.3,2.9,16.6,1.3c2.6-0.8,5-2.2,6.7-4.1c1.8-1.9,2.8-4.4,2.7-6.8c-0.1-2.4-1.1-4.8-2.9-6.3
						c-1.8-1.5-4.3-1.6-6.2-0.8c-2,0.8-3.6,2.6-3.6,4.6c-0.1,2,1,3.8,2.4,5c1.4,1.2,3.2,1.8,4.9,2.1c1.7,0.3,3.3,0.3,4.9,0.2
						c3-0.2,5.6-1.1,7.2-2.5c1.7-1.4,2.4-2.9,2.7-4C753.7,179.4,753.6,178.8,753.7,178.8z"/>
				</g>
			</g>
		</g>
		<g>
			<g>
				<g>
					<path class="st2" d="M612.7,219c0.1-0.2,2.3,1.1,6.2,1.4c1.9,0.1,4.3-0.1,6.7-0.9c2.4-0.8,5-2.2,7.4-3.9
						c4.8-3.5,7.5-8.6,8.5-12.3c1.1-3.8,0.9-6.3,1.1-6.3c0.1,0,0.2,0.6,0.2,1.7c0,1.1-0.1,2.8-0.6,4.7c-0.9,3.9-3.5,9.2-8.6,12.9
						c-2.5,1.8-5.1,3.2-7.7,4c-2.6,0.8-5,1-7.1,0.8c-2-0.2-3.6-0.8-4.6-1.2C613.2,219.4,612.7,219.1,612.7,219z"/>
				</g>
			</g>
		</g>
		<g>
			<g>
				<g>
					<path class="st2" d="M614.1,233.5c0-0.2,2.4,0.3,6.2-0.1c3.8-0.3,9-1.7,13.7-5c4.7-3.4,7.7-7.9,9.2-11.3
						c1.6-3.5,1.9-5.8,2.1-5.8c0.1,0,0,0.6-0.2,1.7c-0.2,1.1-0.6,2.6-1.3,4.4c-1.4,3.6-4.4,8.3-9.3,11.8c-4.9,3.5-10.4,4.8-14.2,4.9
						c-1.9,0.1-3.5,0-4.6-0.2C614.6,233.8,614.1,233.6,614.1,233.5z"/>
				</g>
			</g>
		</g>
		<g>
			<g>
				<g>
					<path class="st5" d="M667,261.5c-0.3,0.1-0.5-0.1-0.6-0.4c-0.1-0.3,0.1-0.6,0.4-0.6c0.3-0.1,0.5,0.1,0.6,0.4
						C667.4,261.2,667.3,261.5,667,261.5z"/>
				</g>
			</g>
		</g>
		<g>
			<g>
				<g>
					<path class="st5" d="M675.6,259.3c-0.3,0.1-0.5-0.2-0.6-0.5c-0.1-0.3,0.1-0.7,0.3-0.7c0.3-0.1,0.5,0.2,0.6,0.5
						C676,258.9,675.9,259.2,675.6,259.3z"/>
				</g>
			</g>
		</g>
		<g>
			<g>
				<g>
					<path class="st5" d="M681.4,258.9c-0.3,0-0.6-0.3-0.6-0.7c-0.1-0.4,0.1-0.8,0.4-0.9c0.3,0,0.6,0.3,0.6,0.7
						C681.8,258.5,681.7,258.9,681.4,258.9z"/>
				</g>
			</g>
		</g>
		<g>
			<g>
				<g>
					<path class="st5" d="M671.5,266.8c-0.3,0-0.5-0.1-0.5-0.3c0-0.2,0.2-0.3,0.5-0.3c0.3,0,0.5,0.1,0.5,0.3
						C671.9,266.6,671.7,266.8,671.5,266.8z"/>
				</g>
			</g>
		</g>
		<g>
			<g>
				<g>
					<path class="st5" d="M679.3,264.7c-0.3,0-0.5-0.2-0.6-0.5c0-0.3,0.2-0.6,0.4-0.6c0.3,0,0.5,0.2,0.6,0.5
						C679.8,264.4,679.6,264.6,679.3,264.7z"/>
				</g>
			</g>
		</g>
		<g>
			<g>
				<g>
					<path class="st5" d="M720.3,258.3c-0.3,0.1-0.5-0.1-0.6-0.4c-0.1-0.3,0.1-0.6,0.4-0.7c0.3-0.1,0.5,0.1,0.6,0.4
						C720.8,258,720.6,258.3,720.3,258.3z"/>
				</g>
			</g>
		</g>
		<g>
			<g>
				<g>
					<path class="st5" d="M726.2,257.6c-0.3,0-0.5-0.2-0.6-0.6c0-0.3,0.1-0.7,0.4-0.7c0.3,0,0.5,0.2,0.6,0.6
						C726.7,257.2,726.5,257.5,726.2,257.6z"/>
				</g>
			</g>
		</g>
		<g>
			<g>
				<g>
					<path class="st5" d="M715.1,258.6c-0.3,0.1-0.5-0.1-0.6-0.3c-0.1-0.2,0.1-0.5,0.4-0.5c0.3-0.1,0.5,0.1,0.6,0.3
						C715.6,258.3,715.4,258.6,715.1,258.6z"/>
				</g>
			</g>
		</g>
		<g>
			<g>
				<g>
					<path class="st5" d="M719.7,264.4c-0.2,0.1-0.6,0-0.7-0.3c-0.1-0.3-0.1-0.6,0.2-0.7c0.2-0.1,0.6,0,0.7,0.3
						C720.1,263.9,720,264.3,719.7,264.4z"/>
				</g>
			</g>
		</g>
		<g>
			<g>
				<g>
					<path class="st5" d="M724.7,263.2c-0.3-0.1-0.4-0.3-0.4-0.5c0.1-0.2,0.3-0.4,0.6-0.3c0.3,0.1,0.4,0.3,0.4,0.5
						C725.2,263.1,725,263.3,724.7,263.2z"/>
				</g>
			</g>
		</g>
	</g>
	<g>
		<g>
			<g>
				<path class="st6" d="M714.8,597.2l-0.3-29.8c0,0-19.9-27.5-12-57.4c0,0,13-9.1,47.7-3.8c0,0,43.6-42.5,102.1-31.7
					c58.5,10.8,63.9,61.8,64.5,75.6c0.6,13.9,0.4,40.8-19.7,67.1l-1.4,26.1c0,0-4.8,9.8-18.7,9.2c-13.9-0.7-13.1-2.7-13.1-2.7
					s-17.4,14.1-18.2,17.7c-0.8,3.7-3.5,17.6-3.5,17.6s-6,8.2-19.1,9.2c-6.2,0.5-11.2-1.2-14.9-3.1c-3.5-1.8-6.2-4.9-7.4-8.7
					c-1.6-5.2-5.9-14-16.4-18.9l-9-2.4c0,0-3.6,3.3-16.3,4.7c-12.6,1.4-12.7-3.1-12.7-3.1s-19.7,4.5-34.4-14.7
					C700.4,633,694,605.6,714.8,597.2z"/>
			</g>
			<g>
				<g>
					<path class="st3" d="M836,598.9c0,0,0.2-0.3,0.6-0.9c0.4-0.6,1.1-1.4,1.9-2.6c1.6-2.2,4-5.5,6.5-9.8c2.5-4.3,5.3-9.5,7.7-15.7
						c1.2-3.1,2.4-6.3,3.4-9.7c1-3.4,1.8-7.1,1-10.7c-0.9-3.6-3.6-6.4-6.4-8.5c-2.9-2-6.1-3.5-9.1-4.7c-6.1-2.4-11.9-3.6-16.9-4.1
						c-4.9-0.5-9-0.3-11.7,0c-1.4,0.1-2.5,0.3-3.2,0.4c-0.7,0.1-1.1,0.1-1.1,0.1c0,0,0.4-0.1,1.1-0.2c0.7-0.2,1.8-0.3,3.2-0.5
						c2.8-0.3,6.8-0.6,11.8-0.2c5,0.4,10.9,1.5,17.1,4c3.1,1.2,6.3,2.7,9.2,4.8c2.9,2.1,5.8,5,6.7,8.8c0.9,3.9,0,7.7-1,11.1
						c-1,3.4-2.2,6.7-3.4,9.8c-2.5,6.1-5.3,11.4-7.9,15.7c-2.6,4.3-5,7.5-6.7,9.7c-0.9,1.1-1.5,1.9-2,2.5
						C836.3,598.7,836,598.9,836,598.9z"/>
				</g>
			</g>
			<g>
				<g>
					<path class="st3" d="M754.2,507.5c0,0,0.1,0.2,0.2,0.7c0.1,0.5,0.2,1.2,0.1,2.1c-0.2,1.8-1.1,4.4-3.3,6.8
						c-2.2,2.4-5.5,4.4-8.8,7c-3.3,2.6-6.7,5.8-9.8,9.5c-6.3,7.4-10.5,15.2-12.9,21.1c-1.2,2.9-2,5.4-2.5,7.1
						c-0.2,0.8-0.4,1.4-0.6,2c-0.1,0.4-0.2,0.7-0.3,0.7c0,0,0-0.2,0.1-0.7c0.1-0.5,0.3-1.2,0.5-2c0.4-1.7,1.2-4.2,2.3-7.2
						c2.3-6,6.4-13.9,12.8-21.4c3.2-3.7,6.6-6.9,9.9-9.5c3.3-2.7,6.6-4.6,8.8-6.9c2.2-2.2,3.2-4.7,3.4-6.5
						C754.5,508.5,754.1,507.5,754.2,507.5z"/>
				</g>
			</g>
			<g class="st7">
				<path d="M777.6,511.2l17.8,4.5c0,0,26-29.3,54.6-36.7l-10.7-2.5C839.3,476.5,804.8,482.6,777.6,511.2z"/>
			</g>
			<g>
				<path class="st8" d="M844.2,477.6c-23.2,5.2-44.8,17.5-61.1,34.9l-5.5-1.4c0,0,25.2-27.7,61.7-34.7L844.2,477.6z"/>
			</g>
			<g>
				<g>
					<path class="st9" d="M844.2,477.6c-23.2,5.2-44.8,17.5-61.1,34.9l-5.5-1.4c0,0,25.2-27.7,61.7-34.7L844.2,477.6z"/>
				</g>
			</g>
			<g>
				<path class="st8" d="M706.2,603.3c9.9-14.1,34.6-9.8,45.8,2.9c11.1,12.5,16.3,30.1,8.9,45.2c-3.1,6.4-9.1,12.1-16.3,11.9
					c7.3-7.9,9.9-19.3,7.6-29.8c-2.3-10.5-8.9-19.8-17.3-26.6c-4.3-3.4-9-7.2-14.5-7.7C715.1,598.6,710.7,598.5,706.2,603.3"/>
			</g>
			<g>
				<g>
					<path class="st10" d="M706.2,603.3c9.9-14.1,34.6-9.8,45.8,2.9c11.1,12.5,16.3,30.1,8.9,45.2c-3.1,6.4-9.1,12.1-16.3,11.9
						c7.3-7.9,9.9-19.3,7.6-29.8c-2.3-10.5-8.9-19.8-17.3-26.6c-4.3-3.4-9-7.2-14.5-7.7C715.1,598.6,710.7,598.5,706.2,603.3"/>
				</g>
			</g>
			<g class="st11">
				<g>
					<path d="M837,598.1c-0.2,3,2.5,5.6,5.5,6c3,0.3,5.9-1.2,7.9-3.5c2-2.2,3.1-5.1,4-7.9c3.1-9.7,4.7-24.1,3.1-34.1
						c-4.3,13-11.9,29.1-20.7,39.5"/>
				</g>
			</g>
			<g class="st11">
				<g>
					<path d="M846.3,553.5c-1.9-5.7-7.8-9-13.4-10.9c-5.8-2-11.8-3.2-17.9-3.5c-1.9-0.1-3.9-0.1-5.7,0.6c-1.8,0.7-3.4,2.1-3.7,4
						c-0.3,1.5,0.6,3.2,1.9,3.9c9.7,11.2,17,24.5,21.3,38.6c0.8,2.8,4.3,3.5,6.2,1.3c4.6-5.2,7.2-12.2,9.5-18.9
						C846.2,563.8,848,558.4,846.3,553.5z"/>
				</g>
			</g>
			<g class="st11">
				<g>
					<path d="M718.2,556.1c-6.1-9.4-9.3-20.6-9-31.8c0.1-2.4,0.3-4.9,2-6.6c2-2.1,5.2-2.1,8.1-1.9c7.9,0.5,15.7,1.6,23.4,3.3
						c0.6,0.1,1.3,0.3,1.5,0.9c0.4,0.9,0.3,2.2-0.5,2.7c-12,7.4-20.5,20.9-25,34.1"/>
				</g>
			</g>
			<g>
				<g>
					<path class="st12" d="M703.2,511.1c0,0,0,0.7-0.1,2c-0.1,1.3-0.2,3.2-0.3,5.5c-0.2,4.6,0,11.1,1.2,18.1
						c0.6,3.5,1.4,6.8,2.3,9.7c0.9,2.9,1.9,5.5,2.8,7.7c0.9,2.1,1.7,3.8,2.3,5c0.6,1.2,0.9,1.8,0.8,1.8c0,0-0.4-0.6-1.1-1.7
						c-0.7-1.1-1.5-2.8-2.5-4.9c-1-2.1-2-4.7-2.9-7.7c-0.9-3-1.8-6.3-2.4-9.8c-1.2-7-1.3-13.5-1-18.2c0.1-2.3,0.3-4.2,0.5-5.5
						C703,511.8,703.2,511.1,703.2,511.1z"/>
				</g>
			</g>
			<g>
				<g>
					<path class="st12" d="M838.3,475.5c0,0-0.2,0.1-0.7,0.3c-0.5,0.2-1.2,0.4-2,0.6c-0.9,0.2-1.9,0.5-3.2,0.9
						c-1.2,0.4-2.6,0.8-4.2,1.3c-3.1,1-6.7,2.4-10.7,4.1c-3.9,1.7-8.2,3.8-12.5,6.2c-4.3,2.4-8.3,5-11.8,7.5c-3.5,2.5-6.6,4.9-9.1,7
						c-1.3,1-2.4,2-3.3,2.9c-1,0.8-1.8,1.6-2.5,2.2c-0.6,0.6-1.1,1-1.6,1.4c-0.4,0.3-0.6,0.5-0.6,0.5c0,0,0.1-0.2,0.5-0.6
						c0.4-0.4,0.9-0.9,1.5-1.5c0.6-0.7,1.4-1.4,2.4-2.3c1-0.9,2-1.9,3.3-2.9c2.5-2.2,5.5-4.6,9-7.1c3.5-2.5,7.5-5.1,11.9-7.5
						c4.4-2.4,8.6-4.5,12.6-6.2c4-1.7,7.6-3,10.8-4c1.5-0.5,3-0.9,4.2-1.3c1.2-0.4,2.3-0.6,3.2-0.8c0.8-0.2,1.5-0.3,2-0.5
						C838,475.6,838.2,475.5,838.3,475.5z"/>
				</g>
			</g>
			<g>
				<g>
					<path class="st12" d="M853.9,546.4c-0.1,0.1-2.1-1.9-6-4.4c-1.9-1.3-4.4-2.5-7.2-3.7c-2.8-1.2-6-2.2-9.4-3
						c-6.9-1.5-13.3-1.5-17.9-1.1c-4.6,0.5-7.4,1.2-7.4,1.1c0,0,0.7-0.2,1.9-0.6c1.3-0.4,3.1-0.7,5.4-1c4.6-0.6,11.1-0.7,18.1,0.9
						c3.5,0.8,6.7,1.8,9.5,3.1c2.8,1.3,5.3,2.6,7.2,3.9c0.5,0.3,0.9,0.6,1.4,0.9c0.4,0.3,0.8,0.6,1.2,0.9c0.7,0.6,1.3,1.1,1.8,1.5
						C853.4,545.8,853.9,546.3,853.9,546.4z"/>
				</g>
			</g>
			<g>
				<g>
					<path class="st12" d="M734,661.1c0,0-0.2,0-0.6-0.2c-0.4-0.1-1-0.3-1.8-0.6c-1.5-0.6-3.7-1.6-6.3-3.1
						c-5.1-3-11.5-8.4-16.1-16.3c-4.6-7.8-6.1-16.1-6.3-22c-0.1-3,0.1-5.3,0.4-7c0.1-0.8,0.2-1.4,0.3-1.9c0.1-0.4,0.1-0.6,0.2-0.6
						c0.1,0-0.1,0.9-0.2,2.5c-0.2,1.6-0.3,4-0.1,6.9c0.2,5.8,1.9,14,6.4,21.7c4.5,7.7,10.8,13.1,15.8,16.2c2.5,1.6,4.6,2.6,6.1,3.3
						C733.2,660.7,734,661,734,661.1z"/>
				</g>
			</g>
			<g>
				<g class="st13">
					<g>
						<path class="st10" d="M737.5,630.1c-2.1-0.8-4.5-0.1-6,1.6c-1.5,1.6-2.1,4-1.7,6.1c0.3,2.2,1,4,2.6,5.6
							c1.1,1.1,2.9,2.1,4.4,2.2c2.1,0.1,4-1.4,5-3.2c1.2-2.1,1.4-4.8,0.6-7.1C741.5,633,739.8,631,737.5,630.1"/>
					</g>
				</g>
				<g>
					<path class="st10" d="M735.5,629.9c-1.9,2.3-2.6,5.6-1.6,8.5c0.9,2.9,3.4,5.2,6.4,5.9c-1,1-3,1.6-4.5,1.2
						c-4-1.2-6.6-5.4-6.3-9.5c0.1-1.7,0.7-3.3,1.9-4.5C732.5,630.2,734.8,629.7,735.5,629.9"/>
				</g>
				<g class="st14">
					<g>
						<path class="st10" d="M735.5,629.9c-1.9,2.3-2.6,5.6-1.6,8.5c0.9,2.9,3.4,5.2,6.4,5.9c-1,1-3,1.6-4.5,1.2
							c-4-1.2-6.6-5.4-6.3-9.5c0.1-1.7,0.7-3.3,1.9-4.5C732.5,630.2,734.8,629.7,735.5,629.9"/>
					</g>
				</g>
			</g>
			<g>
				<g class="st13">
					<g>
						<path class="st10" d="M717.8,622.5c-2-0.8-4.4-0.1-5.8,1.5c-1.4,1.6-2,3.8-1.6,5.9c0.3,2.1,1,3.9,2.5,5.4c1,1,2.8,2,4.3,2.1
							c2,0.1,3.8-1.3,4.8-3.1c1.1-2.1,1.3-4.6,0.5-6.8C721.6,625.3,720,623.4,717.8,622.5"/>
					</g>
				</g>
				<g>
					<path class="st10" d="M715.8,622.3c-1.9,2.2-2.5,5.4-1.6,8.2c0.9,2.8,3.3,5,6.1,5.7c-1,0.9-2.9,1.6-4.4,1.2
						c-3.9-1.1-6.4-5.2-6.1-9.2c0.1-1.6,0.7-3.2,1.9-4.4C713,622.6,715.1,622.1,715.8,622.3"/>
				</g>
				<g class="st14">
					<g>
						<path class="st10" d="M715.8,622.3c-1.9,2.2-2.5,5.4-1.6,8.2c0.9,2.8,3.3,5,6.1,5.7c-1,0.9-2.9,1.6-4.4,1.2
							c-3.9-1.1-6.4-5.2-6.1-9.2c0.1-1.6,0.7-3.2,1.9-4.4C713,622.6,715.1,622.1,715.8,622.3"/>
					</g>
				</g>
			</g>
			<g>
				<g>
					<path class="st3" d="M771.1,584.8C771.2,584.8,771,584.8,771.1,584.8L771.1,584.8z"/>
				</g>
				<g>
					<g>
						<path class="st3" d="M768.6,585.6c0.1,0,0.1-0.1,0.2-0.1c0,0,0.1,0,0.1,0L768.6,585.6z"/>
					</g>
					<g>
						<path class="st3" d="M778.8,589.8c-0.7-1.7-1.8-3.3-3.5-4.1c-1.1-0.5-2.6-1-4.1-1l-0.1,0c-0.7,0-1.6,0.3-2.2,0.7
							c-3,1.4-5.1,4.5-5.4,7.8c-0.3,4.2,2.3,8.4,6.2,10.2c1.3,0.6,2.7,0.9,4.1,0.6c1.4-0.3,2.6-1.3,3.4-2.4
							C779.8,598.4,780.3,593.7,778.8,589.8z"/>
					</g>
				</g>
			</g>
			<g>
				<g>
					<path class="st3" d="M729.3,571.9C729.4,571.9,729.2,571.9,729.3,571.9L729.3,571.9z"/>
				</g>
				<g>
					<g>
						<path class="st3" d="M727.2,572.6c0.1,0,0.1,0,0.2-0.1c0,0,0.1,0,0.1,0L727.2,572.6z"/>
					</g>
					<g>
						<path class="st3" d="M736,576.3c-0.6-1.5-1.6-2.8-3-3.5c-0.9-0.4-2.2-0.9-3.5-0.8l-0.1,0c-0.6,0-1.4,0.2-1.9,0.6
							c-2.6,1.2-4.4,3.9-4.6,6.8c-0.3,3.6,2,7.3,5.3,8.8c1.1,0.5,2.4,0.8,3.6,0.5c1.2-0.3,2.2-1.1,3-2.1
							C736.9,583.7,737.3,579.6,736,576.3z"/>
					</g>
				</g>
			</g>
			<g>
				<g>
					<path class="st3" d="M738.7,598.6c0,0,0.3,0,0.8,0.2c0.5,0.1,1.3,0.4,2.3,0.7c2,0.7,4.8,2,7.9,4.3c3.1,2.2,6.3,5.5,9,9.8
						c2.7,4.3,4.7,9.5,5.6,15.3c0.9,5.7,0.7,11.3-0.2,16.3c-0.9,5-2.9,9.2-5.6,12c-2.6,2.8-5.5,4.3-7.5,4.8
						c-2.1,0.6-3.3,0.4-3.3,0.4c0-0.1,1.2,0,3.2-0.7c2-0.6,4.8-2.1,7.2-4.9c2.5-2.8,4.4-7,5.3-11.8c0.9-4.9,1-10.4,0.1-16.1
						c-0.9-5.7-2.9-10.8-5.5-15.1c-2.6-4.2-5.8-7.5-8.8-9.7c-3-2.3-5.7-3.6-7.7-4.4C739.8,599,738.7,598.7,738.7,598.6z"/>
				</g>
			</g>
			<g>
				<g>
					<path class="st12" d="M725.8,582.8c-0.1,0.1-0.4-0.2-0.8-0.9c-0.4-0.6-0.7-1.6-0.7-2.7c0-1.1,0.3-2.1,0.7-2.7
						c0.4-0.6,0.7-0.9,0.8-0.9c0.2,0.1-0.8,1.6-0.7,3.6C725.1,581.2,726,582.7,725.8,582.8z"/>
				</g>
			</g>
			<g>
				<g>
					<path class="st12" d="M766.2,597.6c-0.1,0-0.4-0.3-0.7-1c-0.3-0.7-0.5-1.8-0.3-3c0.2-1.2,0.7-2.1,1.2-2.7
						c0.5-0.6,0.9-0.8,1-0.7c0.1,0.1-1.2,1.4-1.5,3.6C765.6,595.9,766.4,597.5,766.2,597.6z"/>
				</g>
			</g>
			<g>
				<g>
					<path class="st3" d="M791.7,668.4c-0.1,0.1-1.7-1-4.5-2.4c-2.8-1.4-6.9-3.1-11.5-4.6c-4.6-1.5-8.8-2.8-11.8-3.9
						c-1.5-0.5-2.7-1-3.5-1.3c-0.8-0.3-1.3-0.6-1.3-0.6c0-0.1,1.9,0.5,4.9,1.5c3,1,7.3,2.1,11.9,3.7c4.6,1.5,8.7,3.2,11.5,4.8
						c0.7,0.4,1.3,0.8,1.9,1.1c0.5,0.3,1,0.6,1.4,0.9C791.3,668.1,791.7,668.4,791.7,668.4z"/>
				</g>
			</g>
			<g>
				<g>
					<path class="st3" d="M886.8,625.3c0,0-0.4,0.7-1.2,1.9c-0.8,1.2-2.1,2.9-3.7,4.9c-3.3,4-8.2,9.2-14,14.6
						c-5.8,5.3-11.3,9.9-15.2,13.3c-1.9,1.7-3.4,3-4.6,4.1c-1.1,1-1.7,1.5-1.7,1.4c0,0,0.5-0.6,1.5-1.6c1-1,2.5-2.5,4.4-4.2
						c3.8-3.5,9.2-8.2,15-13.5c5.8-5.3,10.8-10.4,14.1-14.4c1.7-2,3-3.6,3.9-4.7C886.2,625.8,886.7,625.2,886.8,625.3z"/>
				</g>
			</g>
			<g class="st13">
				<g>
					<path d="M864,650.1c7.2,0.6,15.4-1.6,20.5-6.7c5.1-5.1,6.9-13.7,3.8-20.2c-4.2,6-9,12.4-14.7,17.3
						C869.9,643.5,867.5,647.2,864,650.1"/>
				</g>
			</g>
			<g class="st7">
				<g>
					<path d="M838.3,481.5c9.3,13.8,28.6,18.2,37.9,32c3.6,5.4,5.4,11.7,7.1,17.9c7.2,25.8,14.3,51.6,21.5,77.4
						c0.9-16.8-3.2-33.4-7.2-49.7c-4-16.1-7.9-32.2-11.9-48.3c-0.9-3.5-1.8-7.2-3.9-10.2c-2.1-3-5.3-5.2-8.3-7.2
						c-11-7.4-22.3-14.9-35.3-17.9"/>
				</g>
			</g>
		</g>
		<g class="st11">
			<g>
				<path class="st1" d="M772.5,523.3c0.6,1.9-2,4.4-6,7.6c-2,1.6-4.4,3.4-7,5.3c-2.6,2-5.4,4.1-8.3,6.5c-2.9,2.4-5.5,4.7-8,6.8
					c-2.4,2.1-4.7,4.1-6.6,5.8c-3.9,3.3-6.9,5.3-8.7,4.3c-1.6-0.9-1.6-4.8,0.7-10.1c1.1-2.7,2.9-5.6,5.2-8.7c2.3-3,5.2-6.1,8.6-8.9
					c3.4-2.8,7-5,10.4-6.7c3.4-1.6,6.7-2.7,9.6-3.3C768.2,520.8,772,521.5,772.5,523.3z"/>
			</g>
		</g>
		<g>
			<g>
				<path class="st12" d="M736.7,629.1c0,0.2-1.4,0.3-3,0.7c-1.7,0.4-3,0.9-3,0.7c-0.1-0.2,1.1-1,2.9-1.4
					C735.2,628.7,736.7,628.9,736.7,629.1z"/>
			</g>
		</g>
		<g>
			<g>
				<path class="st12" d="M716.3,621.7c0,0.2-1.3,0.1-2.8,0.5c-1.5,0.3-2.6,1-2.8,0.8c-0.1-0.1,0.9-1.1,2.6-1.5
					C715,621.1,716.4,621.5,716.3,621.7z"/>
			</g>
		</g>
		<g>
			<g>
				<path class="st12" d="M806.5,684c-0.2,0.1-2-2.9-4.4-6.4c-2.5-3.5-4.7-6.2-4.5-6.4c0.1-0.1,2.6,2.4,5.1,6
					C805.2,680.7,806.7,683.9,806.5,684z"/>
			</g>
		</g>
		<g>
			<g>
				<path class="st12" d="M726.7,543.3c0.2,0.1-2.5,4-4.8,9.2c-2.3,5.2-3.4,9.8-3.6,9.7c-0.1,0,0.1-1.2,0.5-3c0.5-1.8,1.3-4.3,2.4-7
					c1.2-2.7,2.5-4.9,3.5-6.5C725.9,544.2,726.6,543.3,726.7,543.3z"/>
			</g>
		</g>
		<g>
			<g>
				<path class="st12" d="M791.7,517.4c0,0.2-3.5-0.4-7.5-1.8c-4.1-1.4-7.1-3.1-7-3.2c0.1-0.2,3.3,1.2,7.3,2.6
					C788.4,516.3,791.7,517.2,791.7,517.4z"/>
			</g>
		</g>
	</g>
	<g>
		<g>
			<g>
				<g>
					<g>
						<path class="st5" d="M896.2,495.7c0.1,0.1-2,3-5.7,5.4c-3.7,2.4-7.2,3.1-7.2,3c-0.1-0.2,3.3-1.2,6.9-3.5
							C893.8,498.2,896.1,495.5,896.2,495.7z"/>
					</g>
				</g>
				<g>
					<g>
						<path class="st4" d="M935.5,486.7c-7.2-16.6-79.2-75.6-79.2-75.6l-40.6,52.7c0.6-0.8,66.2,39.2,66.2,39.2l19.4,88.3l0,0
							l3.3,15.7c0,0-8.7,7.6-8.4,15.6c0.2,5.4-12.1,16.9-12.1,16.9c-2.9-2.4-4.8-3.1-6.3-2.8L864.8,649l3.1,2.8
							c3.5,3.2,8,4.9,12.7,4.7l22.3-0.7c3.2-0.1,6.2-1.4,8.4-3.7c6.9-7.1,21.4-22.9,21.7-30.5c0.2-4.3,0.2-8.3,0.2-11.6
							C933.2,610,942.7,503.3,935.5,486.7z"/>
					</g>
					<g>
						<g>
							<path class="st5" d="M914.1,627.9c0,0-0.4,0.3-1.2,0.8c-0.8,0.5-2.1,1-3.5,1.8c-1.5,0.8-2.9,2.1-4.4,3.8
								c-1.4,1.7-3.1,3.6-5.3,5c-4.4,2.9-9.3,3.7-12.6,3.5c-0.8-0.1-1.6-0.1-2.3-0.4c-0.7-0.3-1.1-0.9-1.1-1.4c0-0.5,0.2-0.9,0.5-1
								c0.2-0.1,0.4-0.1,0.4-0.1c0,0-0.1,0.1-0.3,0.2c-0.2,0.1-0.3,0.5-0.3,0.9c0,0.4,0.4,0.9,1,1.1c0.6,0.2,1.3,0.2,2.2,0.3
								c3.3,0.1,8-0.7,12.3-3.6c2.1-1.4,3.8-3.2,5.2-4.8c1.5-1.7,3.1-3,4.6-3.8c1.5-0.8,2.8-1.2,3.7-1.6
								C913.6,628.1,914.1,627.9,914.1,627.9z"/>
						</g>
					</g>
					<g>
						<g>
							<path class="st5" d="M903.9,639.5c0.1,0.2-1.8,1.3-3.7,3c-2,1.7-3.4,3.3-3.5,3.2c-0.1-0.1,1-2,3.1-3.7
								C901.8,640.2,903.8,639.4,903.9,639.5z"/>
						</g>
					</g>
					<g>
						<g>
							<path class="st5" d="M912.9,603c0,0.2-2,0.3-4.1,1.4c-2.2,1-3.5,2.5-3.7,2.3c-0.1-0.1,1.1-1.8,3.4-2.9
								C910.8,602.6,912.9,602.8,912.9,603z"/>
						</g>
					</g>
				</g>
			</g>
		</g>
		<g>
			<g>
				<path class="st5" d="M898.9,646.4c-0.1,0.1-1.4-0.6-3.8-1.1c-2.4-0.6-5.8-0.9-9.5-0.2c-0.9,0.2-1.8,0.4-2.6,0.7
					c-0.4,0.1-0.8,0.3-1.3,0.4c-0.5,0.1-1.1,0-1.4-0.3c-1.3-0.9-2.5-1.8-3.6-2.6c-2-1.5-3.2-2.4-3.2-2.5c0.1-0.1,1.4,0.7,3.4,2.1
					c1.1,0.7,2.3,1.6,3.6,2.4c0.6,0.4,1.3,0.1,2.2-0.2c0.9-0.3,1.8-0.5,2.7-0.7c3.8-0.8,7.4-0.3,9.8,0.4c1.2,0.3,2.1,0.8,2.8,1.1
					C898.6,646.2,899,646.4,898.9,646.4z"/>
			</g>
		</g>
	</g>
	<g>
		<g>
			<path class="st4" d="M747.4,441.6c-8.6-2.5-12.4-3.5-12.4-3.5l0-3.9c0,0,0,0,3.4,0c3.4,0,8.4-4.3,8.4-4.3l7.3-11.2l0.9-7.2
				c-0.8-8.9-11.5-5.4-11.5-5.4c-0.5-3.1-14.2-6.2-24.5-8.1c-7-1.3-14.2,0.6-19.6,5.2l-9.9,8.3L660,437.4l-76.4,64.5l-50.2-14.8
				c0,0-16,48.9-18.6,66.4c-5,33.6,41.2,56,61.6,38.7c15.8-13.5,108.2-112.9,123.5-129.5c0,0,0.1,0,0.1,0
				c9.4-1.2,25.3-10.7,25.3-10.7l8.2,1c0,0,21.7,4.1,24.3-0.1C759.8,449.6,756,444.1,747.4,441.6z"/>
		</g>
		<g>
			<g>
				<g>
					<g>
						<g>
							<g>
								<path class="st5" d="M702.9,431.9c0,0,0.2,0.3,0.5,0.9c0.3,0.6,0.6,1.6,0.9,2.7c0.6,2.4,0.9,5.8,0.3,9.5
									c-0.6,3.7-2,6.8-3.3,8.9c-0.6,1-1.2,1.8-1.7,2.3c-0.4,0.5-0.7,0.8-0.7,0.7c-0.1-0.1,0.8-1.2,2-3.3c1.2-2.1,2.4-5.2,3-8.8
									c0.6-3.6,0.3-6.9-0.1-9.3C703.3,433.3,702.8,431.9,702.9,431.9z"/>
							</g>
						</g>
						<g>
							<g>
								<path class="st5" d="M708.4,404.5c0,0,0.3-0.1,0.8-0.2c0.6-0.1,1.4-0.2,2.4-0.3c2.1-0.2,5.2-0.4,9,0.1
									c1.9,0.3,3.9,0.8,6,1.8c2,1,4.1,2.4,5.7,4.4c1.6,2,2.8,4.6,2.7,7.4c0,1.4-0.4,2.9-1.1,4.1c-0.7,1.3-1.6,2.4-2.6,3.5
									c-2.1,2-4.3,3.7-6.6,5.2c-1.1,0.7-2.2,1.4-3.5,1.9c-0.6,0.2-1.3,0.4-2,0.3c-0.7,0-1.4-0.4-1.9-0.9c-0.5-0.6-0.6-1.3-0.6-1.9
									c0-0.6,0.1-1.3,0.3-1.8c0.4-1.1,0.9-2.2,1.6-3.1c1.3-1.9,2.9-3.2,4.6-4.1l0.1,0.5c-3.8-0.7-6.9-1.3-9.1-1.7
									c-1-0.2-1.8-0.4-2.5-0.5c-0.6-0.1-0.9-0.2-0.9-0.2c0,0,0.3,0,0.9,0.1c0.6,0.1,1.5,0.2,2.5,0.4c2.3,0.4,5.4,0.9,9.2,1.5
									l0.7,0.1l-0.6,0.3c-1.6,0.9-3.2,2.2-4.4,4c-0.6,0.9-1.1,1.9-1.5,3c-0.3,1-0.5,2.3,0.2,3.2c0.7,0.9,2,0.8,3.1,0.4
									c1.1-0.4,2.3-1.2,3.4-1.9c2.2-1.4,4.4-3.1,6.4-5.1c2-2,3.5-4.5,3.5-7.2c0-2.6-1-5.1-2.6-7c-1.5-1.9-3.5-3.3-5.5-4.3
									c-2-1-4-1.5-5.8-1.8c-3.7-0.6-6.8-0.4-8.9-0.3c-1,0.1-1.8,0.1-2.4,0.2C708.7,404.5,708.4,404.5,708.4,404.5z"/>
							</g>
						</g>
						<g>
							<g>
								<path class="st5" d="M743.7,406.5c0,0,0.1,0.5,0.2,1.4c0.1,0.9,0.2,2.3,0.2,4c-0.1,3.3-0.6,8.2-3.3,12.7
									c-2.7,4.5-6.9,7.4-10.3,7.8c-1.8,0.2-3.2-0.6-3.8-1.3c-0.3-0.4-0.5-0.7-0.6-1c-0.1-0.2-0.1-0.4-0.1-0.4
									c0.1,0,0.2,0.5,0.8,1.1c0.6,0.6,1.9,1.3,3.5,1c3.2-0.5,7.2-3.4,9.8-7.7c2.6-4.3,3.3-9,3.4-12.3
									C743.7,408.6,743.6,406.6,743.7,406.5z"/>
							</g>
						</g>
						<g>
							<g>
								<path class="st5" d="M724.7,444.8c-0.1-0.1,0.6-0.7,1.4-1.9c0.8-1.2,1.7-3,1.9-5.2c0.2-2.2-0.3-4.2-0.9-5.5
									c-0.6-1.3-1.1-2.1-1.1-2.1c0.1-0.1,0.8,0.6,1.5,1.9c0.7,1.3,1.4,3.4,1.1,5.8c-0.2,2.3-1.3,4.3-2.2,5.4
									C725.6,444.4,724.8,444.9,724.7,444.8z"/>
							</g>
						</g>
						<g>
							<g>
								<path class="st5" d="M711.7,419.4c0.1,0,0.6,1.1,0.4,2.9c-0.1,0.9-0.3,2-0.9,3.1c-0.6,1.1-1.3,2.2-2.3,3.2
									c-2,2.1-4.4,3.1-6,3.9c-1.7,0.7-2.8,1-2.8,0.9c0-0.1,1-0.6,2.6-1.4c1.6-0.8,3.9-1.9,5.7-3.9c0.9-1,1.6-2.1,2.2-3.1
									c0.6-1,0.9-2,1-2.9C711.9,420.5,711.6,419.4,711.7,419.4z"/>
							</g>
						</g>
					</g>
				</g>
				<g>
					<g>
						<path class="st15" d="M768.7,423.4L731,443.9c0,0,20.2,5,38.4,24.4c16.6,17.5,22.9,36.5,22.9,36.5l37.6-25
							C829.9,479.8,809.7,434,768.7,423.4z"/>
					</g>
					<g>
						<g>
							<path class="st1" d="M737.6,443.2c1.7-0.9,11.9-6.8,30.4-17.4l0.1,0l0.1,0c5,1.3,10.2,3.4,15.4,6.3c5.2,3,10.4,6.7,15.4,11.3
								c5,4.5,9.7,9.7,14.2,15.5c4.4,5.8,8.6,12.1,12.2,19l0.1,0.3l-0.3,0.2c-0.6,0.4-1.3,0.9-2,1.3c-10.2,6.8-20,13.3-29,19.4
								l-0.3,0.2l-0.2-0.4c-4.5-11-10.4-20.4-16.7-28c-6.3-7.6-13.1-13.2-19-17.3c-6-4.1-11.2-6.6-14.8-8.2
								c-1.8-0.8-3.2-1.3-4.2-1.6c-0.5-0.2-0.8-0.3-1.1-0.4C737.7,443.2,737.6,443.2,737.6,443.2c0.1,0,0.2,0,0.4,0.1
								c0.3,0.1,0.7,0.2,1.1,0.3c1,0.3,2.4,0.8,4.3,1.5c3.7,1.5,8.9,4,14.9,8.1c6,4.1,12.8,9.7,19.2,17.3
								c6.4,7.6,12.3,17.1,16.9,28.1l-0.5-0.2c9-6,18.8-12.6,29-19.4c0.7-0.5,1.4-0.9,2-1.3l-0.1,0.4c-3.6-6.8-7.7-13.1-12.1-18.9
								c-4.4-5.8-9.1-11-14.1-15.5c-4.9-4.5-10.1-8.3-15.2-11.3c-5.2-2.9-10.3-5.1-15.2-6.4l0.2,0
								C749.7,436.5,739.3,442.2,737.6,443.2z"/>
						</g>
					</g>
					<g>
						<path class="st12" d="M799.3,455.5c-1,5.8-8.3,9.3-16.4,7.8c-8.1-1.5-13.8-7.4-12.9-13.2c1-5.8,8.3-9.3,16.4-7.8
							C794.6,443.8,800.3,449.7,799.3,455.5z"/>
					</g>
					<g>
						<path class="st16" d="M781.8,457.4l-1.3,1.4l-1.5-1.5l1.3-1.4c-1.2-1.3-2-2.8-2.3-4.1l2.5-1.1c0.3,1.3,1.1,2.7,2.1,3.7
							c1,1,1.7,1.1,2.1,0.6c1.3-1.4-4.6-5.2-1.6-8.6c1.3-1.4,3.4-1.7,5.6,0l1.3-1.4l1.5,1.5l-1.3,1.4c0.9,1,1.5,2.1,1.8,3.2
							l-2.5,1.2c-0.4-1.3-1-2.3-1.8-3.1c-1-1-1.7-1-2.2-0.6c-1.3,1.4,4.7,5.2,1.6,8.5C786,458.7,784,459,781.8,457.4z"/>
					</g>
					<g>
						<path class="st12" d="M746.2,438.3c0,0,6.4,3.2,0.3,8l-9.4-3.6L746.2,438.3z"/>
					</g>
					<g>
						<path class="st12" d="M763.4,428.7c0,0,6.2,6.5,12.1-0.3l-7.3-2.4L763.4,428.7z"/>
					</g>
					<g>
						<path class="st12" d="M790.3,490.2c0,0,8.3-6.7,13.1,2.4l-9.3,6.2L790.3,490.2z"/>
					</g>
					<g>
						<path class="st12" d="M820.9,470.6c0,0-6,3.7-1.9,11.5l6.1-4.1L820.9,470.6z"/>
					</g>
					<g>
						<path class="st16" d="M798.7,492.4c0,1.4-1.1,2.6-2.5,2.6c-1.4,0-2.5-1.2-2.5-2.6c0-1.4,1.1-2.6,2.5-2.6
							C797.6,489.8,798.7,490.9,798.7,492.4z"/>
					</g>
					<g>
						<path class="st16" d="M823.8,476.4c0,1.4-1.1,2.6-2.5,2.6c-1.4,0-2.5-1.2-2.5-2.6c0-1.4,1.1-2.6,2.5-2.6
							C822.7,473.8,823.8,474.9,823.8,476.4z"/>
					</g>
					<g>
						<path class="st16" d="M772,428.4c0,0.9-1.3,1.7-2.9,1.7s-2.9-0.8-2.9-1.7c0-0.9,1.3-1.7,2.9-1.7
							C770.8,426.7,772,427.5,772,428.4z"/>
					</g>
					<g>
						<path class="st16" d="M747.5,442.3c0,1.2-1.2,2.2-2.8,2.2c-1.5,0-2.8-1-2.8-2.2c0-1.2,1.2-2.2,2.8-2.2
							C746.3,440.1,747.5,441.1,747.5,442.3z"/>
					</g>
					<g>
						<path class="st12" d="M770.7,440.9c0,1.4-1.8,2.6-4,2.6c-2.2,0-4-1.2-4-2.6c0-1.4,1.8-2.6,4-2.6
							C768.9,438.3,770.7,439.5,770.7,440.9z"/>
					</g>
					<g>
						<path class="st12" d="M802.4,475.4c-1.8,0.8-4-0.3-4.9-2.5c-0.9-2.2-0.2-4.6,1.5-5.5c1.8-0.8,4,0.3,4.9,2.5
							C804.9,472.1,804.2,474.5,802.4,475.4z"/>
					</g>
				</g>
				<g>
					<g>
						<path class="st4" d="M746.8,429.9l15.5,16.3c0,0,6.2,7.1,10.4,3.7c4.2-3.3-1.7-9.6-2.9-11.4c-1.2-1.8-16.4-20.2-16.4-20.2
							L746.8,429.9z"/>
					</g>
					<g>
						<g>
							<path class="st5" d="M754.8,415.2c0.1,0-0.1,1.1-0.6,2.8c-0.5,1.7-1.4,4-2.7,6.4c-1.4,2.4-3,4.3-4.4,5.4
								c-1.4,1.2-2.4,1.7-2.4,1.6c-0.1-0.1,0.8-0.8,2.1-2c1.2-1.2,2.8-3.1,4.1-5.4C753.5,419.5,754.5,415.1,754.8,415.2z"/>
						</g>
					</g>
				</g>
			</g>
			<g>
				<g>
					<path class="st5" d="M610.8,479c0,0-0.2,0.3-0.7,0.7c-0.5,0.5-1.3,1.1-2.2,1.9c-2,1.7-4.7,4.1-8.1,7
						c-6.8,5.9-16.3,13.9-26.9,22.7c-10.6,8.8-20.2,16.6-27.3,22.2c-3.5,2.8-6.4,5-8.5,6.5c-1,0.7-1.8,1.3-2.4,1.7
						c-0.5,0.4-0.8,0.6-0.9,0.5c0,0,0.3-0.2,0.8-0.7c0.6-0.5,1.3-1,2.3-1.8c2-1.6,4.8-3.8,8.3-6.6c7-5.6,16.6-13.5,27.2-22.3
						c10.5-8.8,20-16.7,27-22.5c3.4-2.8,6.2-5.2,8.2-6.8c0.9-0.8,1.7-1.4,2.2-1.8C610.5,479.2,610.7,479,610.8,479z"/>
				</g>
			</g>
		</g>
	</g>
</g>
<path class="st17" d="M1010.9,727.3c-52.1-7.6-102.2-14.2-150.3-19.7l19-30.8c-6.4-1.9-34.6,15.7-34.6,15.7l25-89.5
	c-32.2,3.1-48.7,94.5-48.7,94.5l-36-31.1l17.4,34.9c-147.2-15.2-274.4-21.2-381.3-21.9l16.3-26.3c-6.4-1.9-34.6,15.7-34.6,15.7
	l25-89.5c-32.2,3.1-48.7,94.5-48.7,94.5l-36-31.1l18.5,36.9c-89.7,1.1-162.8,5.9-219.2,11.5c16.5-41.1,72.4-80,72.4-80
	c-42.7,10.4-65.1,28.2-76.8,44.7c-0.9-50.8,5.1-145,49.9-249.1c0,0-88.3,160.4-77,268.4l1.3,19.2C37.6,702.8,0,712,0,712
	L1010.9,727.3z"/>
<path class="st17" d="M537.5,29.1v648.2c0,16.1-13.1,29.1-29.1,29.1H245.2c-16.1,0-29.1-13-29.1-29c0,0,0-0.1,0-0.1V29.1
	c0-16.1,13-29.1,29.1-29.1c0,0,0,0,0,0h39.4v5.1c0,13.2,10.7,24,24,24h133.8c5.1,0,10.1-1.6,14.2-4.7c0.8-0.6,1.6-1.3,2.4-2
	c4.7-4.5,7.4-10.8,7.4-17.3V0h42C524.5,0,537.5,13,537.5,29.1C537.5,29.1,537.5,29.1,537.5,29.1z"/>
<circle class="st18" cx="289.4" cy="108" r="7"/>
<path class="st6" d="M459,22.4c-0.7,0.7-1.5,1.4-2.4,2c17.3,30.5,46.7,52.3,80.9,60.2v-3.1C504.3,73.6,475.8,52.2,459,22.4z"/>
<path class="st6" d="M399.2,29h-3.3c23.7,60.2,77.6,103.3,141.6,113.1V139C475.2,129.3,422.7,87.5,399.2,29z"/>
<path class="st6" d="M338.8,29h-3.2c26.4,91.7,106.2,160,201.9,171.1v-3C443.5,186.1,365.1,119.1,338.8,29z"/>
<polygon class="st18" points="266.4,159.8 264.6,159.8 264.6,158 264.2,158 264.2,159.8 262.4,159.8 262.4,160.2 264.2,160.2 
	264.2,162 264.6,162 264.6,160.2 266.4,160.2 "/>
<polygon class="st18" points="389.4,68.8 387.6,68.8 387.6,67 387.2,67 387.2,68.8 385.4,68.8 385.4,69.2 387.2,69.2 387.2,71 
	387.6,71 387.6,69.2 389.4,69.2 "/>
<polygon class="st18" points="284.4,231.8 282.6,231.8 282.6,230 282.2,230 282.2,231.8 280.4,231.8 280.4,232.2 282.2,232.2 
	282.2,234 282.6,234 282.6,232.2 284.4,232.2 "/>
<polygon class="st18" points="368.4,178.8 366.6,178.8 366.6,177 366.2,177 366.2,178.8 364.4,178.8 364.4,179.2 366.2,179.2 
	366.2,181 366.6,181 366.6,179.2 368.4,179.2 "/>
<polygon class="st18" points="488.4,211.8 486.6,211.8 486.6,210 486.2,210 486.2,211.8 484.4,211.8 484.4,212.2 486.2,212.2 
	486.2,214 486.6,214 486.6,212.2 488.4,212.2 "/>
<circle class="st19" cx="467.4" cy="125" r="4"/>
<path class="st20" d="M324.1,218.8l-2.3,0.4c0.7,4.5,1.3,9.2,1.7,13.8l2.3-0.2C325.4,228.1,324.8,223.4,324.1,218.8z"/>
<path class="st20" d="M317.9,191.5l-2.2,0.7c1.3,4.4,2.5,8.9,3.5,13.4l2.2-0.5C320.5,200.5,319.3,195.9,317.9,191.5z"/>
<path class="st20" d="M308,165.2l-2.1,1c1.9,4.2,3.7,8.5,5.4,12.8l2.1-0.8C311.8,173.8,310,169.5,308,165.2z"/>
<path class="st20" d="M294.6,140.7l-1.9,1.2c2.5,3.9,4.8,7.9,7,11.9l2-1.1C299.5,148.6,297.1,144.6,294.6,140.7z"/>
<path class="st20" d="M277.9,118.1l-1.8,1.5c3,3.5,5.9,7.2,8.6,10.9l1.8-1.4C283.9,125.4,281,121.7,277.9,118.1z"/>
<path class="st20" d="M258.4,98.1l-1.5,1.7c3.4,3.1,6.8,6.3,10,9.6l1.6-1.6C265.3,104.4,261.8,101.2,258.4,98.1z"/>
<path class="st20" d="M236.2,80.8l-1.3,1.9c3.8,2.6,7.6,5.3,11.2,8.1l1.4-1.8C243.9,86.2,240.1,83.5,236.2,80.8z"/>
<path class="st20" d="M216.1,68.9v2.6c2.4,1.2,4.8,2.6,7.1,3.9l1.1-2C221.6,71.8,218.9,70.3,216.1,68.9z"/>
<path class="st20" d="M323.6,434.8c0.4-2.2,0.7-4.5,1-6.8l2.3,0.3c-0.3,2.3-0.6,4.6-1,6.9L323.6,434.8z"/>
<path class="st20" d="M317.2,461.8l2.2,0.7c1.4-4.4,2.6-9,3.7-13.5l-2.2-0.5C319.8,452.9,318.6,457.4,317.2,461.8z"/>
<path class="st20" d="M307.2,487.6l2.1,1c2-4.2,3.8-8.5,5.5-12.9l-2.1-0.8C311,479.2,309.1,483.5,307.2,487.6z"/>
<path class="st20" d="M293.6,511.8l1.9,1.3c2.5-3.9,5-7.9,7.3-12l-2-1.1C298.6,504,296.2,508,293.6,511.8z"/>
<path class="st20" d="M276.9,534l1.7,1.5c3.1-3.5,6-7.2,8.8-10.9l-1.8-1.4C282.9,526.9,280,530.5,276.9,534z"/>
<path class="st20" d="M257.4,553.6l1.5,1.7c3.5-3.1,7-6.3,10.2-9.6l-1.6-1.6C264.2,547.4,260.8,550.6,257.4,553.6z"/>
<path class="st20" d="M235.3,570.4l1.3,1.9c3.9-2.6,7.7-5.3,11.4-8.1l-1.4-1.8C243,565.2,239.1,567.9,235.3,570.4z"/>
<path class="st20" d="M224.6,579.7c-2.8,1.6-5.6,3.1-8.5,4.5v-2.6c2.5-1.3,4.9-2.6,7.4-3.9L224.6,579.7z"/>
<path class="st20" d="M324.3,247.1l2.3,0c0,2.3,0,4.7,0,6.9l-2.3,0C324.3,251.7,324.3,249.4,324.3,247.1z"/>
<path class="st1" d="M226.2,301.6h235.2c36.5,0,66,29.5,66,66v8.7l0,0H292.2c-36.5,0-66-29.5-66-66c0,0,0,0,0,0L226.2,301.6
	L226.2,301.6z"/>
<path class="st18" d="M382.3,705.5c-0.2-0.4-5.6-9.4-7.5-28.2c-1.7-17.2-0.6-46.2,14.4-86.7c28.5-76.7-6.6-138.5-6.9-139.1l1.7-1
	c0.1,0.2,9.1,15.9,14.5,41c7.1,33.3,4.5,67.9-7.4,99.8c-28.5,76.5-7.3,112.8-7.1,113.1L382.3,705.5z"/>
<circle class="st6" cx="371.2" cy="434" r="13"/>
<circle class="st18" cx="412.2" cy="482" r="13"/>
<circle class="st6" cx="384.2" cy="514" r="13"/>
<circle class="st6" cx="418.2" cy="541" r="13"/>
<circle class="st18" cx="374.2" cy="583" r="13"/>
<path class="st18" d="M390.2,706c0,0-13-32,26-56L390.2,706z"/>
<path class="st18" d="M374.2,705.4c0,0-5.9-34-51.7-33.7L374.2,705.4z"/>
<circle class="st21" cx="322.4" cy="339" r="80"/>
<circle class="st21" cx="322.4" cy="339" r="56.3"/>
<circle class="st6" cx="322.4" cy="339" r="37.2"/>
<path class="st1" d="M329.2,331c0-3.7-3-6.8-6.8-6.8c-3.7,0-6.8,3-6.8,6.8c0,2,0.9,4,2.5,5.2l-2.5,17.4h13.5l-2.5-17.4
	C328.3,334.9,329.2,333,329.2,331z"/>
<g class="st22">
	<path class="st23" d="M696.1,53.3c0,0-22.3-20-52.3,17.7s-76.9,56.1-87.7,70.8c0,0,44.6-18.5,60-26.1s14.6-6.2,14.6-6.2
		s-20.8,14.6-24.6,29.2s-0.8,26.9-7.7,41.5s132.3,10,132.3,10s13.8-23.8,10-48.4S739.2,56.4,696.1,53.3z"/>
	<path class="st24" d="M653.9,116.2c0,0,4.8,33.9-15.9,41.6s-13.2,18-13.2,18L656,191l33.3-10.4l11.1-16.6c0,0-18-4.2-13.2-16.6
		s6.2-16.6,6.2-16.6L653.9,116.2z"/>
	<path class="st25" d="M653.9,116.2c0,0,4.8,33.9-15.9,41.6s-13.2,18-13.2,18L656,191l33.3-10.4l11.1-16.6c0,0-18-4.2-13.2-16.6
		s6.2-16.6,6.2-16.6L653.9,116.2z"/>
	<path class="st24" d="M741.2,213.2c0,0-4.8,63.7-3.5,66.5s0,99.1,0,99.1s9.7,52-2.8,54.7s-9.7-58.2-9.7-58.2l-12.5-80.4l1.4-79.7
		L741.2,213.2z"/>
	<path class="st25" d="M741.2,213.2c0,0-4.8,63.7-3.5,66.5s0,99.1,0,99.1s9.7,52-2.8,54.7s-9.7-58.2-9.7-58.2l-12.5-80.4l1.4-79.7
		L741.2,213.2z"/>
	<path class="st24" d="M606.1,405.1c0,0-22.9,86.6-22.2,128.9s9.7,101.1,9.7,101.1s1.4,25.6-0.7,28.4c-2.1,2.8,10.4,14.5,10.4,14.5
		l13.2-7.6l4.8-5.5V660c0,0-7.6-23.6-1.4-42.3c6.2-18.7,9.7-65.8,3.5-80.4l43-127.5L606.1,405.1z"/>
	<path class="st23" d="M604.7,667c0,0-8.3-10.4-13.9-6.9s-14.5,27-14.5,27s-31.2,29.8-9,31.2s31.9-6.2,34.6-11.8
		s28.4-20.1,28.4-20.1s-2.8-26.3-6.9-27c-4.2-0.7-10.4,10.4-10.4,10.4L604.7,667z"/>
	<path class="st24" d="M681.6,410.6v85.9c0.1,10.4,0.8,20.8,2.1,31.2c2.1,15.2-11.8,128.9-11.8,128.9l1.4,20.1l17.3-1.4l2.1-17.3
		l24.9-76.2c0,0,8.3-46.4,4.2-63.7c-4.2-17.3,21.5-128.2,21.5-128.2L681.6,410.6z"/>
	<path class="st23" d="M667.8,671.8l5.1-1.1c0,0,3.9-8.6,8.7-6.5c3.4,1.6,6.6,3.5,9.6,5.8l2.1,3.9c0,0,4.8,10.4,11.1,17.3
		c6.2,6.9,13.2,22.2,2.8,23.6c-10.4,1.4-24.2,2.1-28.4-1.4c-4.2-3.5-1.4-9-5.5-10.4c-4.2-1.4-7.6-5.5-6.9-6.9
		S667.8,671.8,667.8,671.8z"/>
	<circle class="st24" cx="681.6" cy="109.3" r="30.8"/>
	<path class="st26" d="M623.4,163.3l9.2-3.2c0,0-3.6,6,15.8,9.4s39.5,4.7,48.5-6.7c0,0,3.5-1.7,8.3,3.2c4.8,4.8,7.6,3.5,7.6,3.5
		l-3.5,18l-6.9,33.3l-9,24.9l-25.6-5.5l-27.7-20.1l-10.4-27v-24.9L623.4,163.3z"/>
	<path class="st26" d="M708,173l6.9-4.8c0,0,23.6,4.2,24.9,15.2l-18,34.6c3.7,9.6,3.4,20.3-0.7,29.8c-6.9,15.9-6.2,19.4-6.2,19.4
		L710,288l-88,6.9c0,0-3.5-8.3-4.8-9.7s-1.4-6.2,0-6.2s0-2.1-1.4-4.2s-2.1-2.8,0-5.5s-3.5-27.7-3.5-27.7v-27l-23.6-31.2
		c0,0,8.3-12.5,12.5-13.9s23.9-6.8,23.9-6.8l4.5,6.6l6.2,50.1l9,30.5l37.9-6.4l14.7-24.7l9.7-29.1L708,173z"/>
	<path class="st26" d="M734.3,179.2l5.5,4.2c0,0,4.8,38.8,3.5,41.6s-25.6,5.5-26.3,4.2S734.3,179.2,734.3,179.2z"/>
	<path class="st23" d="M620,159.8l6.9,45.7c0,0-6.2,67.9-4.8,81.7l1.4,4.2c0,0-2.8-1.4-3.5,1.4s0,11.8,0,11.8s-4.2,4.2-5.5,27
		s-18,77.6-11.8,79.7s43.6,12.5,63.7,10.4s92.1-26.3,91.4-32.6s-35.3-94.2-35.3-94.2s-6.2-10.4-6.2-11.8s8.3-6.9,6.2-12.5
		S709.3,207,709.3,207l7.6-41.6l-10.4-2.8l-7.6,40.2c0,0-29.8,14.5-61,1.4l-6.9-47.1L620,159.8z"/>
	<path class="st23" d="M653.3,87.2c0,0,51.3,35.3,65.1,19.4s-24.2-29.8-24.2-29.8l-31.9-3.5L653.3,87.2z"/>
	<path class="st26" d="M573.7,463c12,8.9,28.9,6.4,37.8-5.5c8.9-12,6.4-28.9-5.5-37.8c-12-8.9-28.9-6.4-37.8,5.5
		c-5.9,7.9-7,18.3-2.9,27.3l-70.7,58.9l-9.4-11.2l-4.2,2.8l-4.7-5.6l3.9-3.3l-4.7-5.6l-6,5.1l2.9,3.4l-6.4,5.4l-2.9-3.4l-9.5,8
		l4.3,5.2l3.4-2.9l4.7,5.6l-4.3,3.6l8.7,10.3l-10.3,8.7l10.5,12.5L573.7,463z M591.3,423.5c9.8,0.8,17.1,9.5,16.3,19.3
		c-0.8,9.8-9.5,17.1-19.3,16.3c-9.8-0.8-17.1-9.5-16.3-19.3S581.5,422.7,591.3,423.5L591.3,423.5z"/>
	<path class="st24" d="M584,221.5c0,0,4.8,63.7,3.5,66.5s0,99.1,0,99.1s-9.7,52,2.8,54.7s9.7-58.2,9.7-58.2l12.5-80.4l-1.4-79.7
		L584,221.5z"/>
	<path class="st26" d="M594.3,181.3l-5.5,2.1c0,0-10.4,43.6-7.6,43.6s36,4.2,36,2.8s-6.2-35.3-6.2-35.3L594.3,181.3z"/>
</g>
</svg>
